<?xml version="1.0" encoding="UTF-8" standalone="no"?>
<!DOCTYPE svg PUBLIC "-//W3C//DTD SVG 1.1//EN" "http://www.w3.org/Graphics/SVG/1.1/DTD/svg11.dtd">
<svg xmlns="http://www.w3.org/2000/svg" version="1.1" viewBox="0 0 128 128">
<g stroke-width="2.00" fill="none" stroke-linecap="butt">
<path stroke="#7b7b7b" vector-effect="non-scaling-stroke" d="
  M 70.50 23.46
  Q 64.42 23.77 58.03 25.37
  Q 56.70 25.70 57.87 26.42
  Q 60.08 27.80 57.25 28.04"
/>
<path stroke="#707070" vector-effect="non-scaling-stroke" d="
  M 57.25 28.04
  Q 56.57 27.83 56.08 28.11
  A 1.38 0.63 -82.8 0 0 55.58 28.92
  Q 55.09 30.68 53.25 31.21"
/>
<path stroke="#5b5b5b" vector-effect="non-scaling-stroke" d="
  M 53.25 31.21
  Q 50.53 31.56 48.96 33.75"
/>
<path stroke="#4e4e4e" vector-effect="non-scaling-stroke" d="
  M 48.96 33.75
  Q 48.04 35.94 46.23 37.40
  A 2.28 1.19 -89.9 0 0 45.59 38.62
  L 44.71 42.50"
/>
<path stroke="#2f2f2f" vector-effect="non-scaling-stroke" d="
  M 44.71 42.50
  Q 40.13 42.94 43.46 45.00"
/>
<path stroke="#4e4e4e" vector-effect="non-scaling-stroke" d="
  M 43.46 45.00
  Q 42.32 48.04 42.71 51.25"
/>
<path stroke="#434343" vector-effect="non-scaling-stroke" d="
  M 42.71 51.25
  Q 41.50 52.47 42.36 53.68
  A 1.51 1.07 36.9 0 1 42.64 54.55
  Q 42.43 56.88 42.86 59.13
  Q 43.40 61.91 43.45 63.59
  Q 43.64 69.04 45.25 74.29"
/>
<path stroke="#232323" vector-effect="non-scaling-stroke" d="
  M 45.25 74.29
  Q 45.72 78.31 46.31 79.69
  Q 47.83 83.18 45.16 84.87
  Q 43.59 85.86 43.55 85.89
  Q 38.19 90.18 37.83 97.19
  A 0.77 0.74 14.4 0 0 38.27 97.90
  Q 41.64 99.50 43.67 102.64
  Q 43.89 102.98 44.39 103.27
  Q 44.66 103.42 44.87 103.64
  Q 45.16 103.94 45.23 104.59
  Q 45.42 106.30 46.15 107.81
  Q 47.00 109.57 47.32 110.88
  Q 48.04 113.89 49.77 116.78
  Q 50.85 118.60 48.86 117.85
  Q 47.55 117.36 46.34 116.12
  A 1.71 0.97 60.4 0 0 45.52 115.63
  Q 43.20 115.25 42.95 119.39
  Q 42.86 120.78 42.00 119.69
  Q 41.65 119.23 41.82 118.26
  Q 42.06 116.94 41.01 117.19
  A 1.46 1.45 82.7 0 0 39.89 118.65
  Q 40.02 122.89 37.50 121.71"
/>
<path stroke="#2f2f2f" vector-effect="non-scaling-stroke" d="
  M 37.50 121.71
  Q 37.38 120.05 37.84 118.48
  Q 38.02 117.89 37.87 117.52
  Q 37.61 116.87 36.99 116.90
  A 0.43 0.36 76.9 0 0 36.70 117.47
  Q 37.78 120.32 35.25 122.04"
/>
<path stroke="#232323" vector-effect="non-scaling-stroke" d="
  M 35.25 122.04
  L 32.74 122.75
  A 0.63 0.55 -8.1 0 1 31.94 122.23
  Q 32.08 119.14 30.92 119.71
  A 0.77 0.62 73.5 0 0 30.60 120.49
  Q 31.06 122.98 30.12 125.28
  A 0.82 0.65 -77.2 0 1 29.50 125.78
  Q 29.23 125.79 29.04 125.66
  A 0.94 0.51 -69.2 0 1 28.92 124.77
  Q 29.49 122.80 28.26 120.56
  Q 28.01 120.10 27.90 120.61
  Q 26.98 124.66 27.69 128.00"
/>
<path stroke="#1b1b1b" vector-effect="non-scaling-stroke" d="
  M 39.83 109.39
  Q 38.16 113.28 40.45 109.57
  A 0.67 0.44 -55.8 0 0 40.46 108.81
  Q 40.18 108.58 39.83 109.39"
/>
<path stroke="#8a8a8a" vector-effect="non-scaling-stroke" d="
  M 89.50 33.29
  Q 91.29 34.79 91.00 37.04"
/>
<path stroke="#767675" vector-effect="non-scaling-stroke" d="
  M 91.00 37.04
  Q 89.86 37.91 88.96 37.00"
/>
<path stroke="#9e9e9e" vector-effect="non-scaling-stroke" d="
  M 88.96 37.00
  Q 87.41 35.42 85.54 34.22
  Q 85.00 33.87 84.46 34.03
  A 1.77 0.86 -29.0 0 1 83.53 34.08
  Q 82.09 33.68 82.21 35.10
  Q 82.22 35.16 82.59 36.20
  Q 82.82 36.82 82.50 37.46"
/>
<path stroke="#767675" vector-effect="non-scaling-stroke" d="
  M 82.50 37.46
  L 74.00 37.21"
/>
<path stroke="#929292" vector-effect="non-scaling-stroke" d="
  M 74.00 37.21
  Q 73.89 34.72 72.79 32.48
  Q 72.31 31.50 71.25 31.79"
/>
<path stroke="#9e9e9e" vector-effect="non-scaling-stroke" d="
  M 71.25 31.79
  L 68.80 30.18
  Q 67.90 29.58 67.95 30.64
  Q 68.06 32.92 65.94 34.19
  Q 64.61 34.98 64.66 36.94
  A 0.43 0.43 1.8 0 1 64.19 37.38
  Q 60.99 37.07 58.39 38.95
  A 0.69 0.54 -33.1 0 0 58.12 39.73
  Q 58.26 39.99 58.58 40.03
  Q 58.87 40.06 59.36 39.78
  Q 61.51 38.56 64.13 38.76
  A 0.51 0.45 -85.8 0 1 64.54 39.30
  L 64.21 43.25"
/>
<path stroke="#cacaca" vector-effect="non-scaling-stroke" d="
  M 64.21 43.25
  Q 63.61 41.34 63.72 43.76
  A 0.85 0.77 -18.2 0 1 63.31 44.48
  Q 61.57 45.53 62.00 47.71"
/>
<path stroke="#9e9e9e" vector-effect="non-scaling-stroke" d="
  M 62.00 47.71
  Q 60.95 48.27 61.29 49.50"
/>
<path stroke="#838383" vector-effect="non-scaling-stroke" d="
  M 61.29 49.50
  Q 60.42 51.34 61.50 52.96"
/>
<path stroke="#9e9e9e" vector-effect="non-scaling-stroke" d="
  M 61.50 52.96
  L 60.54 56.25"
/>
<path stroke="#cacaca" vector-effect="non-scaling-stroke" d="
  M 60.54 56.25
  Q 59.57 56.44 59.37 55.69
  Q 59.18 55.01 59.05 54.76
  Q 58.08 53.05 58.25 50.50
  Q 58.76 42.93 55.55 48.63
  A 1.58 1.16 -79.6 0 1 54.86 49.28
  Q 53.65 49.76 53.50 48.69
  Q 53.43 48.18 53.78 47.35
  Q 54.80 44.89 55.44 42.30
  Q 55.53 41.97 55.97 41.51
  Q 56.48 40.97 56.00 40.21"
/>
<path stroke="#dfdfde" vector-effect="non-scaling-stroke" d="
  M 56.00 40.21
  L 55.58 36.79
  Q 55.25 34.12 56.20 32.94
  Q 58.76 29.77 57.25 28.04"
/>
<path stroke="#bfbfbf" vector-effect="non-scaling-stroke" d="
  M 56.00 40.21
  L 52.94 40.35
  A 0.85 0.71 73.2 0 1 52.21 39.87
  Q 50.01 35.31 53.52 31.61
  A 0.27 0.20 -50.5 0 0 53.54 31.24
  Q 53.43 31.17 53.25 31.21"
/>
<path stroke="#464646" vector-effect="non-scaling-stroke" d="
  M 71.25 31.79
  Q 71.59 33.11 70.83 34.12
  A 1.34 0.48 -47.1 0 0 70.45 35.00
  L 70.75 37.21"
/>
<path stroke="#2a292a" vector-effect="non-scaling-stroke" d="
  M 70.75 37.21
  Q 68.83 37.27 66.92 37.26
  Q 66.13 37.25 65.68 37.61
  Q 64.57 38.51 66.84 39.18
  A 4.28 4.24 -10.1 0 1 69.02 40.69
  Q 72.34 45.07 76.25 47.04"
/>
<path stroke="#525152" vector-effect="non-scaling-stroke" d="
  M 76.25 47.04
  Q 76.55 50.03 77.92 52.15
  Q 79.40 54.44 76.76 53.75
  Q 73.92 53.01 72.77 55.23
  A 0.30 0.28 11.5 0 0 73.06 55.64
  Q 74.34 55.59 73.86 56.41
  A 1.38 0.60 -7.8 0 1 73.07 56.89
  L 70.04 57.75"
/>
<path stroke="#373738" vector-effect="non-scaling-stroke" d="
  M 70.04 57.75
  Q 69.92 55.95 69.16 54.42
  Q 68.23 52.58 67.57 51.45
  Q 65.67 48.19 61.29 49.50"
/>
<path stroke="#7e7e7e" vector-effect="non-scaling-stroke" d="
  M 62.00 47.71
  Q 65.33 46.92 64.21 43.25"
/>
<path stroke="#7e7e7e" vector-effect="non-scaling-stroke" d="
  M 60.54 56.25
  L 59.79 57.75"
/>
<path stroke="#9d9d9d" vector-effect="non-scaling-stroke" d="
  M 59.79 57.75
  Q 60.50 60.77 58.49 60.20
  Q 57.91 60.03 57.38 59.38
  Q 56.92 58.81 56.42 58.29
  A 1.50 1.22 -15.3 0 0 55.56 57.91
  Q 52.30 57.60 51.97 54.31
  A 0.57 0.55 88.2 0 0 51.44 53.80
  Q 48.00 53.60 49.72 50.91
  Q 50.01 50.46 50.05 50.00
  Q 50.36 46.82 50.29 43.62
  Q 50.29 43.54 50.52 40.91
  Q 50.69 38.99 49.56 37.19
  Q 48.68 35.77 48.96 33.75"
/>
<path stroke="#1e1e1e" vector-effect="non-scaling-stroke" d="
  M 74.00 37.21
  L 70.75 37.21"
/>
<path stroke="#6a6a6a" vector-effect="non-scaling-stroke" d="
  M 119.46 37.25
  Q 116.84 37.24 118.22 38.83
  A 1.19 0.88 -15.9 0 0 119.06 39.15
  Q 121.12 39.12 122.04 41.00"
/>
<path stroke="#3e3e3e" vector-effect="non-scaling-stroke" d="
  M 122.04 41.00
  Q 122.95 43.15 121.00 43.25
  A 0.75 0.65 5.1 0 0 120.34 43.72
  Q 119.79 45.58 120.29 47.50"
/>
<path stroke="#454445" vector-effect="non-scaling-stroke" d="
  M 103.25 53.79
  L 98.73 52.91
  A 1.16 0.54 71.5 0 1 98.11 52.26
  L 95.50 46.96"
/>
<path stroke="#5d5d5d" vector-effect="non-scaling-stroke" d="
  M 95.50 46.96
  L 97.75 46.79"
/>
<path stroke="#3e3e3e" vector-effect="non-scaling-stroke" d="
  M 97.75 46.79
  Q 100.24 51.14 103.20 47.40
  A 0.78 0.76 -41.1 0 0 103.27 46.55
  Q 102.09 44.46 100.04 45.75"
/>
<path stroke="#5d5d5d" vector-effect="non-scaling-stroke" d="
  M 100.04 45.75
  L 98.00 45.29"
/>
<path stroke="#161616" vector-effect="non-scaling-stroke" d="
  M 98.00 45.29
  Q 98.56 43.89 99.63 42.87
  Q 101.33 41.26 101.59 40.85
  Q 104.25 36.73 98.00 37.50
  Q 96.73 37.66 94.73 37.13
  A 1.70 1.42 -44.2 0 0 93.80 37.20
  Q 92.35 37.76 91.00 37.04"
/>
<path stroke="#525252" vector-effect="non-scaling-stroke" d="
  M 112.90 38.45
  Q 113.31 35.46 110.38 36.59
  A 0.43 0.43 67.0 0 1 109.84 36.37
  L 109.67 36.00
  A 1.01 0.94 -6.4 0 0 108.94 35.46
  Q 106.74 35.07 107.57 36.89
  Q 107.86 37.53 108.61 37.95
  Q 110.47 39.00 112.43 39.86
  Q 112.76 40.01 113.10 39.96
  Q 114.81 39.72 113.28 39.11
  A 0.62 0.61 -75.0 0 1 112.90 38.45"
/>
<path stroke="#6a6a6a" vector-effect="non-scaling-stroke" d="
  M 113.83 41.15
  Q 112.29 40.70 110.94 40.31
  Q 109.57 39.90 110.43 41.05
  Q 111.70 42.75 113.76 42.57
  A 0.87 0.72 4.5 0 0 114.48 42.06
  Q 114.69 41.40 113.83 41.15"
/>
<path stroke="#5d5d5d" vector-effect="non-scaling-stroke" d="
  M 113.82 48.86
  L 112.16 45.47
  A 1.09 0.71 75.3 0 0 111.51 44.88
  Q 109.80 44.56 110.08 46.32
  Q 110.15 46.78 110.02 47.29
  Q 109.78 48.24 110.26 48.93
  Q 110.83 49.74 111.57 50.23
  Q 112.52 50.85 113.71 49.66
  A 0.72 0.65 55.8 0 0 113.82 48.86"
/>
<path stroke="#717171" vector-effect="non-scaling-stroke" d="
  M 59.79 57.75
  Q 60.35 57.85 60.75 58.29"
/>
<path stroke="#565657" vector-effect="non-scaling-stroke" d="
  M 60.75 58.29
  L 60.97 59.36
  Q 61.16 60.24 61.15 60.31
  Q 60.77 66.97 62.21 73.50"
/>
<path stroke="#a4a4a4" vector-effect="non-scaling-stroke" d="
  M 62.21 73.50
  Q 61.10 73.62 61.31 72.51
  Q 61.99 69.00 58.75 68.00
  A 1.69 0.73 17.5 0 0 56.94 68.19
  Q 56.08 70.68 56.42 73.26
  A 1.07 0.76 70.3 0 1 56.18 74.12
  Q 55.70 74.57 55.51 73.91
  Q 55.37 73.44 55.25 73.25
  Q 54.03 71.23 52.27 69.64
  Q 52.19 69.57 52.07 69.52
  Q 51.44 69.29 52.25 69.21"
/>
<path stroke="#858585" vector-effect="non-scaling-stroke" d="
  M 52.25 69.21
  Q 54.24 70.52 54.50 68.00
  Q 54.66 66.43 54.31 63.24
  A 1.29 0.93 -81.8 0 0 53.88 62.42
  L 48.44 58.50
  Q 47.93 58.13 47.74 57.83
  Q 46.37 55.70 44.41 54.09
  Q 43.06 52.98 42.71 51.25"
/>
<path stroke="#717171" vector-effect="non-scaling-stroke" d="
  M 43.46 45.00
  L 44.71 42.50"
/>
<path stroke="#2a292a" vector-effect="non-scaling-stroke" d="
  M 88.96 37.00
  L 82.50 37.46"
/>
<path stroke="#494949" vector-effect="non-scaling-stroke" d="
  M 98.00 45.29
  Q 96.70 45.39 95.49 45.04
  Q 93.77 44.55 93.50 46.04"
/>
<path stroke="#303030" vector-effect="non-scaling-stroke" d="
  M 93.50 46.04
  L 92.93 45.76
  A 0.90 0.57 -81.8 0 1 92.59 45.00
  Q 92.61 44.14 91.25 44.54"
/>
<path stroke="#161616" vector-effect="non-scaling-stroke" d="
  M 91.25 44.54
  Q 89.29 44.53 88.00 43.21"
/>
<path stroke="#303030" vector-effect="non-scaling-stroke" d="
  M 88.00 43.21
  Q 87.40 41.85 86.05 41.21
  Q 84.42 40.43 83.96 42.00"
/>
<path stroke="#161616" vector-effect="non-scaling-stroke" d="
  M 83.96 42.00
  Q 82.41 42.77 83.03 43.81
  Q 83.83 45.17 83.84 45.20
  Q 84.36 47.05 83.26 48.54
  A 0.78 0.71 24.6 0 1 82.45 48.80
  L 77.54 47.50"
/>
<path stroke="#2a292a" vector-effect="non-scaling-stroke" d="
  M 77.54 47.50
  Q 76.98 47.04 76.25 47.04"
/>
<path stroke="#767675" vector-effect="non-scaling-stroke" d="
  M 72.90 41.76
  Q 71.85 39.95 70.86 38.89
  Q 70.15 38.12 69.87 38.77
  A 0.79 0.76 33.7 0 0 70.06 39.64
  L 72.60 42.04
  Q 73.61 42.99 72.90 41.76"
/>
<path stroke="#5d5d5d" vector-effect="non-scaling-stroke" d="
  M 73.70 39.41
  Q 72.76 38.17 72.34 39.09
  A 0.90 0.77 40.5 0 0 72.48 39.97
  Q 73.48 41.25 75.26 41.94
  Q 76.69 42.48 75.72 41.30
  Q 75.29 40.77 74.60 40.29
  Q 74.10 39.93 73.70 39.41"
/>
<path stroke="#7f7f7f" vector-effect="non-scaling-stroke" d="
  M 90.25 40.80
  Q 89.61 39.99 88.99 39.17
  Q 88.78 38.90 88.54 38.80
  Q 88.08 38.63 87.91 38.95
  A 0.81 0.58 36.4 0 0 88.18 39.78
  L 90.66 41.97
  A 0.36 0.31 30.7 0 0 91.22 41.87
  Q 91.31 41.56 91.03 41.37
  Q 90.32 40.88 90.25 40.80"
/>
<path stroke="#767675" vector-effect="non-scaling-stroke" d="
  M 94.50 41.71
  Q 93.34 39.65 91.95 39.12
  Q 90.17 38.43 91.74 39.74
  Q 93.18 40.94 94.19 41.95
  Q 95.17 42.91 94.50 41.71"
/>
<path stroke="#7e7e7e" vector-effect="non-scaling-stroke" d="
  M 122.75 40.96
  L 122.04 41.00"
/>
<path stroke="#454445" vector-effect="non-scaling-stroke" d="
  M 88.00 43.21
  Q 84.70 46.10 83.96 42.00"
/>
<path stroke="#454445" vector-effect="non-scaling-stroke" d="
  M 91.25 44.54
  Q 91.04 45.31 91.53 45.78
  A 1.01 0.63 34.4 0 1 91.87 46.56
  Q 91.64 47.71 90.85 46.62
  Q 90.52 46.17 90.20 46.26
  A 0.49 0.37 61.6 0 0 90.10 46.96
  Q 91.81 49.42 89.84 48.22
  Q 89.58 48.06 89.12 47.89
  Q 88.18 47.55 88.87 46.83
  A 0.48 0.43 -47.4 0 0 88.88 46.16
  Q 86.22 43.89 84.75 47.34
  Q 84.58 47.72 84.65 48.30
  Q 84.80 49.71 83.73 50.53
  A 1.41 0.95 83.5 0 0 83.32 51.32
  Q 83.20 52.00 82.25 51.71"
/>
<path stroke="#3e3e3e" vector-effect="non-scaling-stroke" d="
  M 82.25 51.71
  Q 80.80 50.45 78.99 49.79
  Q 77.33 49.18 77.54 47.50"
/>
<path stroke="#787778" vector-effect="non-scaling-stroke" d="
  M 93.50 46.04
  Q 94.05 47.30 95.50 46.96"
/>
<path stroke="#aeadae" vector-effect="non-scaling-stroke" d="
  M 82.21 77.00
  Q 80.73 76.10 79.00 76.71"
/>
<path stroke="#787778" vector-effect="non-scaling-stroke" d="
  M 79.00 76.71
  Q 78.48 76.37 78.25 75.79"
/>
<path stroke="#3e3d3e" vector-effect="non-scaling-stroke" d="
  M 78.25 75.79
  Q 79.42 76.00 79.44 74.94
  Q 79.46 73.08 80.95 72.56
  A 1.40 0.63 -10.1 0 0 81.73 72.03
  Q 82.30 70.95 80.41 70.14
  Q 79.69 69.84 80.44 69.61
  Q 81.54 69.27 80.50 68.21"
/>
<path stroke="#6d6c6d" vector-effect="non-scaling-stroke" d="
  M 80.50 68.21
  Q 80.57 67.27 81.27 66.71
  Q 81.79 66.30 81.93 66.00
  Q 82.74 64.30 81.06 63.80
  A 0.88 0.71 5.4 0 1 80.45 63.20
  Q 80.13 61.42 81.88 63.11
  Q 83.12 64.30 82.84 63.28
  Q 82.77 63.02 82.57 62.78
  Q 79.80 59.37 77.79 63.24
  Q 77.68 63.44 77.65 64.17
  Q 77.64 64.62 77.24 64.99
  Q 76.38 65.79 77.50 66.21"
/>
<path stroke="#3e3d3e" vector-effect="non-scaling-stroke" d="
  M 77.50 66.21
  Q 76.73 67.27 76.00 66.50
  Q 74.36 64.78 74.65 62.74
  A 0.85 0.72 -5.7 0 1 75.24 62.13
  Q 76.64 61.70 75.44 60.98
  A 0.38 0.37 -53.6 0 1 75.36 60.41
  Q 75.97 59.73 76.00 58.79"
/>
<path stroke="#595859" vector-effect="non-scaling-stroke" d="
  M 76.00 58.79
  Q 76.73 58.64 76.75 58.00
  Q 76.84 55.65 78.31 54.26
  Q 78.66 53.93 78.82 53.45
  Q 79.28 52.13 80.16 53.27
  Q 80.43 53.62 80.59 53.22
  Q 81.06 52.03 82.25 51.71"
/>
<path stroke="#454445" vector-effect="non-scaling-stroke" d="
  M 87.66 55.11
  Q 85.89 56.33 86.09 57.95
  A 0.88 0.83 -23.1 0 1 85.76 58.71
  Q 85.32 59.06 85.43 59.38
  Q 85.65 60.02 85.98 59.30
  L 87.85 55.26
  Q 88.05 54.85 87.66 55.11"
/>
<path stroke="#4d4c4d" vector-effect="non-scaling-stroke" d="
  M 84.50 64.17
  Q 83.42 64.87 83.61 66.20
  Q 83.67 66.56 83.96 66.83
  Q 84.99 67.75 84.75 66.25
  Q 84.46 64.43 85.97 64.79
  A 0.56 0.53 16.3 0 0 86.61 64.46
  Q 87.08 63.23 87.68 62.05
  Q 87.96 61.50 88.01 61.00
  Q 88.19 59.09 87.15 60.08
  A 0.92 0.71 64.4 0 0 86.97 60.91
  Q 87.36 62.40 86.06 63.03
  A 1.05 0.23 11.4 0 1 85.31 63.04
  Q 84.97 62.99 84.92 63.44
  A 1.04 0.90 79.0 0 1 84.50 64.17"
/>
<path stroke="#717171" vector-effect="non-scaling-stroke" d="
  M 100.04 45.75
  Q 99.27 46.89 97.75 46.79"
/>
<path stroke="#373738" vector-effect="non-scaling-stroke" d="
  M 76.00 58.79
  Q 74.53 58.71 73.96 60.00"
/>
<path stroke="#666666" vector-effect="non-scaling-stroke" d="
  M 73.96 60.00
  Q 73.30 59.88 72.79 60.25"
/>
<path stroke="#373738" vector-effect="non-scaling-stroke" d="
  M 72.79 60.25
  Q 72.13 59.65 71.56 60.06
  Q 69.80 61.34 69.38 63.81
  A 0.55 0.50 -81.3 0 1 68.82 64.27
  Q 66.12 63.94 66.80 61.17
  A 1.02 0.76 -7.9 0 1 67.42 60.56
  Q 68.21 60.28 68.17 59.55
  A 0.67 0.58 78.3 0 1 68.53 58.91
  Q 69.46 58.54 70.04 57.75"
/>
<path stroke="#4b4b4c" vector-effect="non-scaling-stroke" d="
  M 72.79 60.25
  Q 72.23 61.33 72.00 62.50
  Q 71.63 64.35 72.69 62.94
  Q 73.67 61.62 73.96 60.00"
/>
<path stroke="#4b4b4c" vector-effect="non-scaling-stroke" d="
  M 77.50 66.21
  Q 77.97 68.92 80.50 68.21"
/>
<path stroke="#565657" vector-effect="non-scaling-stroke" d="
  M 78.25 75.79
  Q 70.95 71.21 76.41 77.13
  A 0.60 0.49 47.9 0 1 76.45 77.91
  L 74.96 79.25"
/>
<path stroke="#787878" vector-effect="non-scaling-stroke" d="
  M 74.96 79.25
  Q 67.84 78.07 66.44 77.56
  Q 64.40 76.83 62.25 73.71"
/>
<path stroke="#6a6a6b" vector-effect="non-scaling-stroke" d="
  M 62.25 73.71
  L 62.21 73.50"
/>
<path stroke="#373738" vector-effect="non-scaling-stroke" d="
  M 60.75 58.29
  Q 63.48 55.84 61.50 52.96"
/>
<path stroke="#999999" vector-effect="non-scaling-stroke" d="
  M 52.25 69.21
  L 48.31 65.88
  A 0.36 0.30 32.8 0 0 47.78 65.95
  Q 47.18 67.37 47.82 68.75
  Q 48.05 69.24 48.06 69.69
  Q 48.10 72.86 49.73 75.26
  Q 50.39 76.22 50.58 77.37
  Q 51.28 81.48 52.25 82.21"
/>
<path stroke="#5a5a5a" vector-effect="non-scaling-stroke" d="
  M 52.25 82.21
  Q 48.83 83.11 47.68 79.77
  Q 46.87 77.42 46.29 74.99
  Q 46.08 74.07 45.25 74.29"
/>
<path stroke="#c6c6c6" vector-effect="non-scaling-stroke" d="
  M 62.25 73.71
  Q 60.69 73.88 60.08 75.28
  Q 59.16 77.41 58.15 79.97
  A 2.12 2.11 -85.0 0 1 56.60 81.28
  Q 54.11 81.80 54.79 84.50"
/>
<path stroke="#d1d1d1" vector-effect="non-scaling-stroke" d="
  M 54.79 84.50
  L 53.50 86.54"
/>
<path stroke="#797979" vector-effect="non-scaling-stroke" d="
  M 53.50 86.54
  Q 52.79 84.96 53.00 84.25
  Q 53.46 82.68 52.25 82.21"
/>
<path stroke="#b2b2b2" vector-effect="non-scaling-stroke" d="
  M 74.96 79.25
  L 75.00 79.46"
/>
<path stroke="#dfdfde" vector-effect="non-scaling-stroke" d="
  M 75.00 79.46
  L 71.54 80.64
  Q 71.11 80.79 70.73 81.19
  Q 69.17 82.87 66.75 83.00
  Q 60.72 83.31 54.79 84.50"
/>
<path stroke="#c6c6c6" vector-effect="non-scaling-stroke" d="
  M 79.00 76.71
  Q 76.81 76.38 77.44 77.37
  A 1.45 0.61 47.7 0 1 77.75 78.25
  Q 77.65 79.23 76.75 79.79"
/>
<path stroke="#bdbdbd" vector-effect="non-scaling-stroke" d="
  M 76.75 79.79
  Q 75.84 79.81 75.00 79.46"
/>
<path stroke="#929292" vector-effect="non-scaling-stroke" d="
  M 53.50 86.54
  Q 55.93 87.36 57.04 89.55
  A 0.78 0.69 -13.0 0 0 57.74 89.93
  Q 58.61 89.91 59.12 90.65
  Q 60.60 92.80 63.24 92.98
  A 1.72 1.15 -13.7 0 1 64.15 93.31
  L 69.38 97.67
  Q 69.76 97.99 70.24 98.11
  Q 73.78 99.05 74.21 102.75"
/>
<path stroke="#9b9b9b" vector-effect="non-scaling-stroke" d="
  M 74.21 102.75
  L 74.29 103.50"
/>
<path stroke="#727272" vector-effect="non-scaling-stroke" d="
  M 74.29 103.50
  Q 72.86 107.57 76.00 106.21"
/>
<path stroke="#9b9b9b" vector-effect="non-scaling-stroke" d="
  M 76.00 106.21
  Q 77.60 108.21 78.81 108.94
  Q 79.60 109.41 78.96 110.00"
/>
<path stroke="#656565" vector-effect="non-scaling-stroke" d="
  M 78.96 110.00
  Q 78.48 110.35 78.12 110.07
  Q 77.40 109.52 77.34 109.51
  Q 76.93 109.44 76.97 109.95
  A 0.97 0.93 13.7 0 0 77.46 110.72
  Q 78.16 111.11 79.00 110.96"
/>
<path stroke="#9b9b9b" vector-effect="non-scaling-stroke" d="
  M 79.00 110.96
  L 80.04 112.00"
/>
<path stroke="#656565" vector-effect="non-scaling-stroke" d="
  M 80.04 112.00
  Q 79.89 112.75 79.30 112.97
  A 0.74 0.56 -14.0 0 0 78.82 113.56
  Q 78.85 114.87 79.06 116.16
  Q 79.21 117.10 79.98 118.56
  Q 80.88 120.29 81.21 122.25"
/>
<path stroke="#9b9b9b" vector-effect="non-scaling-stroke" d="
  M 81.21 122.25
  Q 81.57 122.69 81.54 123.25"
/>
<path stroke="#4d4c4d" vector-effect="non-scaling-stroke" d="
  M 81.54 123.25
  L 81.48 124.09
  A 0.94 0.64 -11.1 0 1 80.84 124.74
  Q 79.19 125.27 77.68 124.50
  A 0.95 0.90 -45.0 0 0 76.83 124.52
  Q 75.80 125.06 74.72 124.63
  Q 74.43 124.52 74.02 124.12
  Q 73.17 123.31 72.98 124.44
  A 0.57 0.45 -80.6 0 1 72.44 124.93
  Q 71.38 124.73 71.55 122.95
  A 1.28 0.85 39.0 0 0 71.31 122.18
  L 69.40 119.45
  A 0.83 0.46 59.6 0 0 68.73 119.06
  Q 68.31 119.17 68.69 119.81
  Q 69.53 121.24 71.50 125.98
  Q 71.70 126.47 71.26 126.17
  Q 69.56 125.05 69.04 123.04
  Q 68.92 122.56 68.58 122.21
  Q 67.15 120.73 66.56 118.78
  A 0.69 0.45 74.9 0 0 65.97 118.25
  Q 65.61 118.33 65.76 119.00
  Q 66.15 120.71 67.33 121.96
  A 1.11 1.01 -65.6 0 1 67.60 122.80
  Q 67.51 123.92 68.42 124.63
  Q 68.71 124.85 68.84 125.09
  Q 69.95 127.24 68.28 125.71
  Q 65.88 123.50 66.65 125.96
  A 1.43 0.95 14.6 0 0 67.26 126.64
  Q 68.21 127.18 67.19 128.00"
/>
<path stroke="#5a5a5a" vector-effect="non-scaling-stroke" d="
  M 66.19 128.00
  Q 66.19 127.27 65.66 126.79
  A 0.73 0.67 31.9 0 1 65.45 126.03
  Q 66.04 124.42 64.49 124.46
  A 0.74 0.73 -80.8 0 0 63.81 124.96
  Q 63.18 126.81 64.69 128.00"
/>
<path stroke="#5a5a5a" vector-effect="non-scaling-stroke" d="
  M 63.19 128.00
  Q 63.61 124.16 59.09 122.38
  A 0.65 0.64 19.6 0 0 58.24 122.78
  Q 57.69 124.45 58.42 125.77
  Q 58.69 126.26 58.21 126.05
  L 56.88 125.48
  A 0.33 0.26 33.2 0 0 56.55 125.51
  Q 55.06 126.83 54.69 128.00"
/>
<path stroke="#464646" vector-effect="non-scaling-stroke" d="
  M 35.25 122.04
  Q 34.97 123.70 35.69 125.13
  A 0.89 0.74 73.0 0 0 36.43 125.62
  Q 37.41 125.60 37.00 124.00
  Q 36.66 122.63 37.50 121.71"
/>
<path stroke="#464646" vector-effect="non-scaling-stroke" d="
  M 54.31 90.40
  Q 54.35 89.58 53.89 89.07
  A 0.97 0.77 -25.2 0 0 53.01 88.86
  Q 50.31 89.59 53.56 90.87
  A 0.55 0.55 12.8 0 0 54.31 90.40"
/>
<path stroke="#464646" vector-effect="non-scaling-stroke" d="
  M 63.69 96.79
  Q 63.13 97.67 63.28 98.31
  A 0.45 0.43 -23.4 0 0 63.95 98.55
  Q 64.78 98.04 64.27 96.83
  Q 64.02 96.26 63.69 96.79"
/>
<path stroke="#4d4c4d" vector-effect="non-scaling-stroke" d="
  M 59.09 97.06
  Q 56.87 96.54 58.37 98.14
  Q 59.96 99.83 61.57 98.52
  A 0.76 0.67 -31.3 0 0 61.82 97.71
  Q 61.44 96.70 60.04 97.04
  Q 59.53 97.17 59.09 97.06"
/>
<path stroke="#4d4c4d" vector-effect="non-scaling-stroke" d="
  M 63.79 102.00
  Q 62.14 105.32 64.60 107.44
  A 0.31 0.29 -39.0 0 1 64.53 107.93
  Q 63.66 108.39 64.16 109.54
  Q 65.20 111.91 65.86 109.99
  A 1.33 1.01 46.0 0 0 65.75 109.07
  Q 64.89 107.45 67.02 107.90
  Q 68.77 108.27 68.75 110.15
  Q 68.73 111.97 69.82 110.51
  Q 72.76 106.57 68.50 103.46"
/>
<path stroke="#464646" vector-effect="non-scaling-stroke" d="
  M 68.50 103.46
  Q 67.54 102.43 68.44 101.44
  Q 70.89 98.71 66.19 98.69
  Q 62.23 98.67 63.79 102.00"
/>
<path stroke="#595859" vector-effect="non-scaling-stroke" d="
  M 68.50 103.46
  L 67.80 103.60
  A 1.79 1.20 41.2 0 1 66.86 103.48
  Q 65.17 102.79 66.19 104.81
  Q 66.87 106.18 66.59 107.08
  A 0.45 0.37 -69.5 0 1 66.05 107.39
  Q 65.82 107.28 65.81 106.94
  Q 65.79 105.21 65.23 103.95
  A 1.96 1.34 -62.9 0 1 65.11 103.02
  Q 65.25 101.93 63.79 102.00"
/>
<path stroke="#4d4c4d" vector-effect="non-scaling-stroke" d="
  M 57.30 103.10
  Q 58.39 103.09 57.79 101.95
  Q 55.93 98.40 54.89 101.77
  A 1.05 0.93 37.8 0 0 55.05 102.64
  Q 56.43 104.53 56.09 107.01
  A 1.89 1.41 44.8 0 0 56.23 107.95
  L 57.89 111.72
  A 0.61 0.59 -17.1 0 0 58.54 112.05
  Q 59.02 111.97 59.48 112.11
  A 0.89 0.78 -86.9 0 1 60.03 112.81
  Q 60.37 115.02 59.24 117.59
  A 1.71 1.71 -51.4 0 0 59.43 119.28
  Q 61.36 121.90 62.52 123.47
  Q 63.11 124.26 63.49 123.93
  A 0.65 0.54 49.6 0 0 63.48 123.09
  L 60.44 119.54
  A 1.29 0.80 36.8 0 1 60.10 118.68
  Q 60.38 116.39 62.34 117.01
  A 0.63 0.56 -77.9 0 1 62.72 117.69
  Q 62.26 120.70 64.77 122.42
  Q 65.20 122.71 65.04 122.21
  Q 63.90 118.54 62.75 114.88
  Q 62.39 113.73 63.50 113.89
  A 0.98 0.96 -63.5 0 0 64.31 113.61
  Q 65.31 112.65 67.40 113.28
  Q 69.13 113.80 68.20 112.25
  Q 66.85 110.01 65.14 111.94
  A 0.53 0.52 49.2 0 1 64.31 111.87
  Q 63.80 111.08 62.82 110.88
  A 1.04 0.83 -58.0 0 0 61.96 111.18
  Q 60.28 112.81 61.00 110.00
  Q 61.26 109.00 60.25 107.00
  Q 59.68 105.87 59.10 106.42
  A 1.12 0.71 70.2 0 0 58.90 107.31
  Q 59.46 110.90 57.41 107.95
  Q 57.01 107.39 56.97 106.83
  Q 56.84 105.10 58.53 104.80
  A 1.49 0.68 0.7 0 0 59.35 104.44
  Q 59.90 103.82 58.28 104.14
  Q 57.30 104.33 56.95 103.53
  A 0.36 0.30 -10.8 0 1 57.30 103.10"
/>
<path stroke="#4d4c4d" vector-effect="non-scaling-stroke" d="
  M 61.45 102.93
  Q 60.26 103.00 60.56 104.03
  Q 60.72 104.56 60.67 104.99
  Q 60.53 106.31 61.50 105.92
  A 0.83 0.65 81.4 0 0 61.91 105.19
  Q 61.90 103.77 62.70 102.64
  A 1.55 0.87 -41.9 0 0 63.00 101.76
  Q 62.93 100.72 62.05 100.42
  A 0.58 0.57 -69.1 0 0 61.33 100.75
  Q 60.93 101.71 61.59 102.57
  Q 61.86 102.91 61.45 102.93"
/>
<path stroke="#4d4c4d" vector-effect="non-scaling-stroke" d="
  M 53.26 104.94
  Q 52.60 105.43 53.40 105.90
  A 0.51 0.51 -57.3 0 0 54.07 105.75
  Q 55.41 103.87 53.50 101.84
  Q 52.86 101.15 53.07 102.06
  L 53.57 104.19
  A 0.80 0.69 -26.6 0 1 53.26 104.94"
/>
<path stroke="#464646" vector-effect="non-scaling-stroke" d="
  M 49.06 106.71
  A 0.82 0.82 30.4 0 0 48.74 105.49
  Q 47.44 104.89 47.87 106.16
  Q 47.97 106.47 48.03 106.85
  Q 48.20 107.93 49.06 106.71"
/>
<path stroke="#464646" vector-effect="non-scaling-stroke" d="
  M 72.20 111.19
  Q 71.89 112.50 72.55 111.74
  A 1.03 0.82 73.8 0 0 72.78 111.18
  Q 73.04 107.74 72.20 111.19"
/>
<path stroke="#4d4c4d" vector-effect="non-scaling-stroke" d="
  M 56.27 111.09
  Q 54.20 110.50 56.27 112.68
  A 0.73 0.73 39.4 0 0 57.42 112.57
  Q 58.02 111.59 56.27 111.09"
/>
<path stroke="#4d4c4d" vector-effect="non-scaling-stroke" d="
  M 71.90 113.34
  Q 72.27 112.37 71.46 113.21
  Q 69.66 115.08 71.61 113.71
  A 0.85 0.71 -11.8 0 0 71.90 113.34"
/>
<path stroke="#4d4c4d" vector-effect="non-scaling-stroke" d="
  M 53.53 116.22
  Q 52.63 118.57 50.91 120.45
  A 0.94 0.76 -35.8 0 0 50.68 121.30
  Q 51.13 122.59 52.50 121.25
  Q 54.22 119.57 54.88 116.99
  Q 55.02 116.48 54.86 116.02
  Q 54.27 114.29 53.53 116.22"
/>
<path stroke="#4d4c4d" vector-effect="non-scaling-stroke" d="
  M 69.36 117.68
  Q 71.05 118.11 69.53 116.96
  A 0.75 0.51 47.8 0 0 68.92 116.81
  Q 68.64 116.92 68.73 117.19
  A 0.93 0.58 5.9 0 0 69.36 117.68"
/>
<path stroke="#4d4c4d" vector-effect="non-scaling-stroke" d="
  M 57.10 119.65
  Q 57.68 118.74 57.28 118.45
  A 0.68 0.52 -51.9 0 0 56.47 118.66
  Q 55.74 119.54 55.95 120.71
  A 0.44 0.37 70.9 0 0 56.53 121.06
  Q 56.78 120.90 56.83 120.56
  Q 56.92 119.94 57.10 119.65"
/>
<path stroke="#464646" vector-effect="non-scaling-stroke" d="
  M 54.31 121.16
  Q 55.94 122.55 54.70 120.78
  A 0.53 0.42 60.2 0 0 54.15 120.56
  Q 53.78 120.71 54.31 121.16"
/>
<path stroke="#4d4c4d" vector-effect="non-scaling-stroke" d="
  M 51.27 126.31
  Q 51.66 128.04 52.15 125.97
  A 0.61 0.46 -76.9 0 0 51.84 125.28
  Q 51.50 125.19 51.31 125.57
  Q 51.16 125.87 51.27 126.31"
/>
<path stroke="#c6c6c6" vector-effect="non-scaling-stroke" d="
  M 87.29 104.75
  Q 86.76 107.96 86.44 111.19
  Q 86.20 113.58 87.17 114.88
  A 1.77 1.15 35.0 0 1 87.52 115.75
  Q 87.68 120.06 87.92 124.37
  Q 87.94 124.74 87.78 124.95
  Q 87.57 125.21 87.27 125.34
  A 0.40 0.34 78.8 0 1 86.81 124.97
  Q 86.78 124.58 86.63 124.54
  A 0.60 0.38 -86.5 0 0 86.17 125.18
  L 86.19 128.00"
/>
<path stroke="#c6c6c6" vector-effect="non-scaling-stroke" d="
  M 82.19 128.00
  Q 82.69 127.14 82.54 126.25"
/>
<path stroke="#aeadae" vector-effect="non-scaling-stroke" d="
  M 82.54 126.25
  L 81.54 123.25"
/>
<path stroke="#c6c6c6" vector-effect="non-scaling-stroke" d="
  M 81.21 122.25
  L 80.42 114.55
  A 1.63 1.63 -34.5 0 1 80.59 113.64
  Q 81.08 112.71 80.04 112.00"
/>
<path stroke="#c6c6c6" vector-effect="non-scaling-stroke" d="
  M 79.00 110.96
  L 78.96 110.00"
/>
<path stroke="#d3d3d3" vector-effect="non-scaling-stroke" d="
  M 76.00 106.21
  L 74.29 103.50"
/>
<path stroke="#f3f3f3" vector-effect="non-scaling-stroke" d="
  M 74.21 102.75
  Q 74.07 101.93 74.69 100.94
  Q 77.65 96.21 72.56 96.18
  A 0.47 0.45 -88.8 0 1 72.11 95.69
  Q 72.19 93.74 70.29 93.01
  A 1.56 1.56 -82.8 0 1 69.33 91.77
  Q 68.84 88.18 71.36 88.31
  Q 73.96 88.43 74.03 88.42
  Q 76.94 87.80 76.50 84.50
  Q 76.10 81.48 76.75 79.79"
/>
<path stroke="#787778" vector-effect="non-scaling-stroke" d="
  M 82.54 126.25
  Q 80.93 126.88 79.45 126.23
  A 1.50 0.86 37.4 0 0 78.52 126.11
  Q 77.12 126.52 76.69 128.00"
/>
<path stroke="#6d6c6d" vector-effect="non-scaling-stroke" d="
  M 59.62 124.41
  Q 60.71 124.17 60.12 123.64
  Q 58.45 122.13 59.23 124.19
  A 0.34 0.34 74.3 0 0 59.62 124.41"
/>
</g>
<path fill="#0c0c0c" d="
  M 70.50 23.46
  Q 64.42 23.77 58.03 25.37
  Q 56.70 25.70 57.87 26.42
  Q 60.08 27.80 57.25 28.04
  Q 56.57 27.83 56.08 28.11
  A 1.38 0.63 -82.8 0 0 55.58 28.92
  Q 55.09 30.68 53.25 31.21
  Q 50.53 31.56 48.96 33.75
  Q 48.04 35.94 46.23 37.40
  A 2.28 1.19 -89.9 0 0 45.59 38.62
  L 44.71 42.50
  Q 40.13 42.94 43.46 45.00
  Q 42.32 48.04 42.71 51.25
  Q 41.50 52.47 42.36 53.68
  A 1.51 1.07 36.9 0 1 42.64 54.55
  Q 42.43 56.88 42.86 59.13
  Q 43.40 61.91 43.45 63.59
  Q 43.64 69.04 45.25 74.29
  Q 45.72 78.31 46.31 79.69
  Q 47.83 83.18 45.16 84.87
  Q 43.59 85.86 43.55 85.89
  Q 38.19 90.18 37.83 97.19
  A 0.77 0.74 14.4 0 0 38.27 97.90
  Q 41.64 99.50 43.67 102.64
  Q 43.89 102.98 44.39 103.27
  Q 44.66 103.42 44.87 103.64
  Q 45.16 103.94 45.23 104.59
  Q 45.42 106.30 46.15 107.81
  Q 47.00 109.57 47.32 110.88
  Q 48.04 113.89 49.77 116.78
  Q 50.85 118.60 48.86 117.85
  Q 47.55 117.36 46.34 116.12
  A 1.71 0.97 60.4 0 0 45.52 115.63
  Q 43.20 115.25 42.95 119.39
  Q 42.86 120.78 42.00 119.69
  Q 41.65 119.23 41.82 118.26
  Q 42.06 116.94 41.01 117.19
  A 1.46 1.45 82.7 0 0 39.89 118.65
  Q 40.02 122.89 37.50 121.71
  Q 37.38 120.05 37.84 118.48
  Q 38.02 117.89 37.87 117.52
  Q 37.61 116.87 36.99 116.90
  A 0.43 0.36 76.9 0 0 36.70 117.47
  Q 37.78 120.32 35.25 122.04
  L 32.74 122.75
  A 0.63 0.55 -8.1 0 1 31.94 122.23
  Q 32.08 119.14 30.92 119.71
  A 0.77 0.62 73.5 0 0 30.60 120.49
  Q 31.06 122.98 30.12 125.28
  A 0.82 0.65 -77.2 0 1 29.50 125.78
  Q 29.23 125.79 29.04 125.66
  A 0.94 0.51 -69.2 0 1 28.92 124.77
  Q 29.49 122.80 28.26 120.56
  Q 28.01 120.10 27.90 120.61
  Q 26.98 124.66 27.69 128.00
  L 1.69 128.00
  Q 1.05 112.10 8.80 98.56
  Q 8.83 98.50 12.17 93.83
  Q 16.19 88.21 16.00 80.00
  Q 15.69 66.75 22.38 54.46
  Q 25.90 48.00 28.14 44.20
  Q 32.10 37.49 37.56 33.06
  Q 51.53 21.74 70.50 23.46
  Z
  M 39.83 109.39
  Q 38.16 113.28 40.45 109.57
  A 0.67 0.44 -55.8 0 0 40.46 108.81
  Q 40.18 108.58 39.83 109.39
  Z"
/>
<path fill="#eaeae9" d="
  M 70.50 23.46
  Q 75.78 23.99 78.69 26.06
  Q 83.99 29.83 89.50 33.29
  Q 91.29 34.79 91.00 37.04
  Q 89.86 37.91 88.96 37.00
  Q 87.41 35.42 85.54 34.22
  Q 85.00 33.87 84.46 34.03
  A 1.77 0.86 -29.0 0 1 83.53 34.08
  Q 82.09 33.68 82.21 35.10
  Q 82.22 35.16 82.59 36.20
  Q 82.82 36.82 82.50 37.46
  L 74.00 37.21
  Q 73.89 34.72 72.79 32.48
  Q 72.31 31.50 71.25 31.79
  L 68.80 30.18
  Q 67.90 29.58 67.95 30.64
  Q 68.06 32.92 65.94 34.19
  Q 64.61 34.98 64.66 36.94
  A 0.43 0.43 1.8 0 1 64.19 37.38
  Q 60.99 37.07 58.39 38.95
  A 0.69 0.54 -33.1 0 0 58.12 39.73
  Q 58.26 39.99 58.58 40.03
  Q 58.87 40.06 59.36 39.78
  Q 61.51 38.56 64.13 38.76
  A 0.51 0.45 -85.8 0 1 64.54 39.30
  L 64.21 43.25
  Q 63.61 41.34 63.72 43.76
  A 0.85 0.77 -18.2 0 1 63.31 44.48
  Q 61.57 45.53 62.00 47.71
  Q 60.95 48.27 61.29 49.50
  Q 60.42 51.34 61.50 52.96
  L 60.54 56.25
  Q 59.57 56.44 59.37 55.69
  Q 59.18 55.01 59.05 54.76
  Q 58.08 53.05 58.25 50.50
  Q 58.76 42.93 55.55 48.63
  A 1.58 1.16 -79.6 0 1 54.86 49.28
  Q 53.65 49.76 53.50 48.69
  Q 53.43 48.18 53.78 47.35
  Q 54.80 44.89 55.44 42.30
  Q 55.53 41.97 55.97 41.51
  Q 56.48 40.97 56.00 40.21
  L 55.58 36.79
  Q 55.25 34.12 56.20 32.94
  Q 58.76 29.77 57.25 28.04
  Q 60.08 27.80 57.87 26.42
  Q 56.70 25.70 58.03 25.37
  Q 64.42 23.77 70.50 23.46
  Z"
/>
<path fill="#d3d3d3" d="
  M 57.25 28.04
  Q 58.76 29.77 56.20 32.94
  Q 55.25 34.12 55.58 36.79
  L 56.00 40.21
  L 52.94 40.35
  A 0.85 0.71 73.2 0 1 52.21 39.87
  Q 50.01 35.31 53.52 31.61
  A 0.27 0.20 -50.5 0 0 53.54 31.24
  Q 53.43 31.17 53.25 31.21
  Q 55.09 30.68 55.58 28.92
  A 1.38 0.63 -82.8 0 1 56.08 28.11
  Q 56.57 27.83 57.25 28.04
  Z"
/>
<path fill="#525152" d="
  M 71.25 31.79
  Q 71.59 33.11 70.83 34.12
  A 1.34 0.48 -47.1 0 0 70.45 35.00
  L 70.75 37.21
  Q 68.83 37.27 66.92 37.26
  Q 66.13 37.25 65.68 37.61
  Q 64.57 38.51 66.84 39.18
  A 4.28 4.24 -10.1 0 1 69.02 40.69
  Q 72.34 45.07 76.25 47.04
  Q 76.55 50.03 77.92 52.15
  Q 79.40 54.44 76.76 53.75
  Q 73.92 53.01 72.77 55.23
  A 0.30 0.28 11.5 0 0 73.06 55.64
  Q 74.34 55.59 73.86 56.41
  A 1.38 0.60 -7.8 0 1 73.07 56.89
  L 70.04 57.75
  Q 69.92 55.95 69.16 54.42
  Q 68.23 52.58 67.57 51.45
  Q 65.67 48.19 61.29 49.50
  Q 60.95 48.27 62.00 47.71
  Q 65.33 46.92 64.21 43.25
  L 64.54 39.30
  A 0.51 0.45 -85.8 0 0 64.13 38.76
  Q 61.51 38.56 59.36 39.78
  Q 58.87 40.06 58.58 40.03
  Q 58.26 39.99 58.12 39.73
  A 0.69 0.54 -33.1 0 1 58.39 38.95
  Q 60.99 37.07 64.19 37.38
  A 0.43 0.43 1.8 0 0 64.66 36.94
  Q 64.61 34.98 65.94 34.19
  Q 68.06 32.92 67.95 30.64
  Q 67.90 29.58 68.80 30.18
  L 71.25 31.79
  Z"
/>
<path fill="#aaaaaa" d="
  M 53.25 31.21
  Q 53.43 31.17 53.54 31.24
  A 0.27 0.20 -50.5 0 1 53.52 31.61
  Q 50.01 35.31 52.21 39.87
  A 0.85 0.71 73.2 0 0 52.94 40.35
  L 56.00 40.21
  Q 56.48 40.97 55.97 41.51
  Q 55.53 41.97 55.44 42.30
  Q 54.80 44.89 53.78 47.35
  Q 53.43 48.18 53.50 48.69
  Q 53.65 49.76 54.86 49.28
  A 1.58 1.16 -79.6 0 0 55.55 48.63
  Q 58.76 42.93 58.25 50.50
  Q 58.08 53.05 59.05 54.76
  Q 59.18 55.01 59.37 55.69
  Q 59.57 56.44 60.54 56.25
  L 59.79 57.75
  Q 60.50 60.77 58.49 60.20
  Q 57.91 60.03 57.38 59.38
  Q 56.92 58.81 56.42 58.29
  A 1.50 1.22 -15.3 0 0 55.56 57.91
  Q 52.30 57.60 51.97 54.31
  A 0.57 0.55 88.2 0 0 51.44 53.80
  Q 48.00 53.60 49.72 50.91
  Q 50.01 50.46 50.05 50.00
  Q 50.36 46.82 50.29 43.62
  Q 50.29 43.54 50.52 40.91
  Q 50.69 38.99 49.56 37.19
  Q 48.68 35.77 48.96 33.75
  Q 50.53 31.56 53.25 31.21
  Z"
/>
<path fill="#3a3a3a" d="
  M 71.25 31.79
  Q 72.31 31.50 72.79 32.48
  Q 73.89 34.72 74.00 37.21
  L 70.75 37.21
  L 70.45 35.00
  A 1.34 0.48 -47.1 0 1 70.83 34.12
  Q 71.59 33.11 71.25 31.79
  Z"
/>
<path fill="#2a2a2a" d="
  M 89.50 33.29
  Q 98.23 34.04 107.00 34.01
  Q 113.70 33.99 119.46 37.25
  Q 116.84 37.24 118.22 38.83
  A 1.19 0.88 -15.9 0 0 119.06 39.15
  Q 121.12 39.12 122.04 41.00
  Q 122.95 43.15 121.00 43.25
  A 0.75 0.65 5.1 0 0 120.34 43.72
  Q 119.79 45.58 120.29 47.50
  Q 114.98 51.56 108.25 51.75
  Q 106.23 51.81 103.25 53.79
  L 98.73 52.91
  A 1.16 0.54 71.5 0 1 98.11 52.26
  L 95.50 46.96
  L 97.75 46.79
  Q 100.24 51.14 103.20 47.40
  A 0.78 0.76 -41.1 0 0 103.27 46.55
  Q 102.09 44.46 100.04 45.75
  L 98.00 45.29
  Q 98.56 43.89 99.63 42.87
  Q 101.33 41.26 101.59 40.85
  Q 104.25 36.73 98.00 37.50
  Q 96.73 37.66 94.73 37.13
  A 1.70 1.42 -44.2 0 0 93.80 37.20
  Q 92.35 37.76 91.00 37.04
  Q 91.29 34.79 89.50 33.29
  Z
  M 112.90 38.45
  Q 113.31 35.46 110.38 36.59
  A 0.43 0.43 67.0 0 1 109.84 36.37
  L 109.67 36.00
  A 1.01 0.94 -6.4 0 0 108.94 35.46
  Q 106.74 35.07 107.57 36.89
  Q 107.86 37.53 108.61 37.95
  Q 110.47 39.00 112.43 39.86
  Q 112.76 40.01 113.10 39.96
  Q 114.81 39.72 113.28 39.11
  A 0.62 0.61 -75.0 0 1 112.90 38.45
  Z
  M 113.83 41.15
  Q 112.29 40.70 110.94 40.31
  Q 109.57 39.90 110.43 41.05
  Q 111.70 42.75 113.76 42.57
  A 0.87 0.72 4.5 0 0 114.48 42.06
  Q 114.69 41.40 113.83 41.15
  Z
  M 113.82 48.86
  L 112.16 45.47
  A 1.09 0.71 75.3 0 0 111.51 44.88
  Q 109.80 44.56 110.08 46.32
  Q 110.15 46.78 110.02 47.29
  Q 109.78 48.24 110.26 48.93
  Q 110.83 49.74 111.57 50.23
  Q 112.52 50.85 113.71 49.66
  A 0.72 0.65 55.8 0 0 113.82 48.86
  Z"
/>
<path fill="#909090" d="
  M 48.96 33.75
  Q 48.68 35.77 49.56 37.19
  Q 50.69 38.99 50.52 40.91
  Q 50.29 43.54 50.29 43.62
  Q 50.36 46.82 50.05 50.00
  Q 50.01 50.46 49.72 50.91
  Q 48.00 53.60 51.44 53.80
  A 0.57 0.55 88.2 0 1 51.97 54.31
  Q 52.30 57.60 55.56 57.91
  A 1.50 1.22 -15.3 0 1 56.42 58.29
  Q 56.92 58.81 57.38 59.38
  Q 57.91 60.03 58.49 60.20
  Q 60.50 60.77 59.79 57.75
  Q 60.35 57.85 60.75 58.29
  L 60.97 59.36
  Q 61.16 60.24 61.15 60.31
  Q 60.77 66.97 62.21 73.50
  Q 61.10 73.62 61.31 72.51
  Q 61.99 69.00 58.75 68.00
  A 1.69 0.73 17.5 0 0 56.94 68.19
  Q 56.08 70.68 56.42 73.26
  A 1.07 0.76 70.3 0 1 56.18 74.12
  Q 55.70 74.57 55.51 73.91
  Q 55.37 73.44 55.25 73.25
  Q 54.03 71.23 52.27 69.64
  Q 52.19 69.57 52.07 69.52
  Q 51.44 69.29 52.25 69.21
  Q 54.24 70.52 54.50 68.00
  Q 54.66 66.43 54.31 63.24
  A 1.29 0.93 -81.8 0 0 53.88 62.42
  L 48.44 58.50
  Q 47.93 58.13 47.74 57.83
  Q 46.37 55.70 44.41 54.09
  Q 43.06 52.98 42.71 51.25
  Q 42.32 48.04 43.46 45.00
  L 44.71 42.50
  L 45.59 38.62
  A 2.28 1.19 -89.9 0 1 46.23 37.40
  Q 48.04 35.94 48.96 33.75
  Z"
/>
<path fill="#525152" d="
  M 88.96 37.00
  L 82.50 37.46
  Q 82.82 36.82 82.59 36.20
  Q 82.22 35.16 82.21 35.10
  Q 82.09 33.68 83.53 34.08
  A 1.77 0.86 -29.0 0 0 84.46 34.03
  Q 85.00 33.87 85.54 34.22
  Q 87.41 35.42 88.96 37.00
  Z"
/>
<path fill="#7a7a7a" d="
  M 113.28 39.11
  Q 114.81 39.72 113.10 39.96
  Q 112.76 40.01 112.43 39.86
  Q 110.47 39.00 108.61 37.95
  Q 107.86 37.53 107.57 36.89
  Q 106.74 35.07 108.94 35.46
  A 1.01 0.94 -6.4 0 1 109.67 36.00
  L 109.84 36.37
  A 0.43 0.43 67.0 0 0 110.38 36.59
  Q 113.31 35.46 112.90 38.45
  A 0.62 0.61 -75.0 0 0 113.28 39.11
  Z"
/>
<path fill="#010101" d="
  M 74.00 37.21
  L 82.50 37.46
  L 88.96 37.00
  Q 89.86 37.91 91.00 37.04
  Q 92.35 37.76 93.80 37.20
  A 1.70 1.42 -44.2 0 1 94.73 37.13
  Q 96.73 37.66 98.00 37.50
  Q 104.25 36.73 101.59 40.85
  Q 101.33 41.26 99.63 42.87
  Q 98.56 43.89 98.00 45.29
  Q 96.70 45.39 95.49 45.04
  Q 93.77 44.55 93.50 46.04
  L 92.93 45.76
  A 0.90 0.57 -81.8 0 1 92.59 45.00
  Q 92.61 44.14 91.25 44.54
  Q 89.29 44.53 88.00 43.21
  Q 87.40 41.85 86.05 41.21
  Q 84.42 40.43 83.96 42.00
  Q 82.41 42.77 83.03 43.81
  Q 83.83 45.17 83.84 45.20
  Q 84.36 47.05 83.26 48.54
  A 0.78 0.71 24.6 0 1 82.45 48.80
  L 77.54 47.50
  Q 76.98 47.04 76.25 47.04
  Q 72.34 45.07 69.02 40.69
  A 4.28 4.24 -10.1 0 0 66.84 39.18
  Q 64.57 38.51 65.68 37.61
  Q 66.13 37.25 66.92 37.26
  Q 68.83 37.27 70.75 37.21
  L 74.00 37.21
  Z
  M 72.90 41.76
  Q 71.85 39.95 70.86 38.89
  Q 70.15 38.12 69.87 38.77
  A 0.79 0.76 33.7 0 0 70.06 39.64
  L 72.60 42.04
  Q 73.61 42.99 72.90 41.76
  Z
  M 73.70 39.41
  Q 72.76 38.17 72.34 39.09
  A 0.90 0.77 40.5 0 0 72.48 39.97
  Q 73.48 41.25 75.26 41.94
  Q 76.69 42.48 75.72 41.30
  Q 75.29 40.77 74.60 40.29
  Q 74.10 39.93 73.70 39.41
  Z
  M 90.25 40.80
  Q 89.61 39.99 88.99 39.17
  Q 88.78 38.90 88.54 38.80
  Q 88.08 38.63 87.91 38.95
  A 0.81 0.58 36.4 0 0 88.18 39.78
  L 90.66 41.97
  A 0.36 0.31 30.7 0 0 91.22 41.87
  Q 91.31 41.56 91.03 41.37
  Q 90.32 40.88 90.25 40.80
  Z
  M 94.50 41.71
  Q 93.34 39.65 91.95 39.12
  Q 90.17 38.43 91.74 39.74
  Q 93.18 40.94 94.19 41.95
  Q 95.17 42.91 94.50 41.71
  Z"
/>
<path fill="#aaaaaa" d="
  M 119.46 37.25
  Q 121.63 38.66 122.75 40.96
  L 122.04 41.00
  Q 121.12 39.12 119.06 39.15
  A 1.19 0.88 -15.9 0 1 118.22 38.83
  Q 116.84 37.24 119.46 37.25
  Z"
/>
<path fill="#eaeae9" d="
  M 72.90 41.76
  Q 73.61 42.99 72.60 42.04
  L 70.06 39.64
  A 0.79 0.76 33.7 0 1 69.87 38.77
  Q 70.15 38.12 70.86 38.89
  Q 71.85 39.95 72.90 41.76
  Z"
/>
<path fill="#b8b8b8" d="
  M 74.60 40.29
  Q 75.29 40.77 75.72 41.30
  Q 76.69 42.48 75.26 41.94
  Q 73.48 41.25 72.48 39.97
  A 0.90 0.77 40.5 0 1 72.34 39.09
  Q 72.76 38.17 73.70 39.41
  Q 74.10 39.93 74.60 40.29
  Z"
/>
<path fill="#fcfcfc" d="
  M 91.03 41.37
  Q 91.31 41.56 91.22 41.87
  A 0.36 0.31 30.7 0 1 90.66 41.97
  L 88.18 39.78
  A 0.81 0.58 36.4 0 1 87.91 38.95
  Q 88.08 38.63 88.54 38.80
  Q 88.78 38.90 88.99 39.17
  Q 89.61 39.99 90.25 40.80
  Q 90.32 40.88 91.03 41.37
  Z"
/>
<path fill="#eaeae9" d="
  M 94.50 41.71
  Q 95.17 42.91 94.19 41.95
  Q 93.18 40.94 91.74 39.74
  Q 90.17 38.43 91.95 39.12
  Q 93.34 39.65 94.50 41.71
  Z"
/>
<path fill="#aaaaaa" d="
  M 113.83 41.15
  Q 114.69 41.40 114.48 42.06
  A 0.87 0.72 4.5 0 1 113.76 42.57
  Q 111.70 42.75 110.43 41.05
  Q 109.57 39.90 110.94 40.31
  Q 112.29 40.70 113.83 41.15
  Z"
/>
<path fill="#5f5e5f" d="
  M 88.00 43.21
  Q 84.70 46.10 83.96 42.00
  Q 84.42 40.43 86.05 41.21
  Q 87.40 41.85 88.00 43.21
  Z"
/>
<path fill="#525152" d="
  M 122.04 41.00
  L 122.75 40.96
  L 123.66 44.31
  A 1.05 1.05 65.0 0 1 123.25 45.44
  L 120.29 47.50
  Q 119.79 45.58 120.34 43.72
  A 0.75 0.65 5.1 0 1 121.00 43.25
  Q 122.95 43.15 122.04 41.00
  Z"
/>
<path fill="#2a2a2a" d="
  M 83.96 42.00
  Q 84.70 46.10 88.00 43.21
  Q 89.29 44.53 91.25 44.54
  Q 91.04 45.31 91.53 45.78
  A 1.01 0.63 34.4 0 1 91.87 46.56
  Q 91.64 47.71 90.85 46.62
  Q 90.52 46.17 90.20 46.26
  A 0.49 0.37 61.6 0 0 90.10 46.96
  Q 91.81 49.42 89.84 48.22
  Q 89.58 48.06 89.12 47.89
  Q 88.18 47.55 88.87 46.83
  A 0.48 0.43 -47.4 0 0 88.88 46.16
  Q 86.22 43.89 84.75 47.34
  Q 84.58 47.72 84.65 48.30
  Q 84.80 49.71 83.73 50.53
  A 1.41 0.95 83.5 0 0 83.32 51.32
  Q 83.20 52.00 82.25 51.71
  Q 80.80 50.45 78.99 49.79
  Q 77.33 49.18 77.54 47.50
  L 82.45 48.80
  A 0.78 0.71 24.6 0 0 83.26 48.54
  Q 84.36 47.05 83.84 45.20
  Q 83.83 45.17 83.03 43.81
  Q 82.41 42.77 83.96 42.00
  Z"
/>
<path fill="#aaaaaa" d="
  M 64.21 43.25
  Q 65.33 46.92 62.00 47.71
  Q 61.57 45.53 63.31 44.48
  A 0.85 0.77 -18.2 0 0 63.72 43.76
  Q 63.61 41.34 64.21 43.25
  Z"
/>
<path fill="#525152" d="
  M 44.71 42.50
  L 43.46 45.00
  Q 40.13 42.94 44.71 42.50
  Z"
/>
<path fill="#5f5e5f" d="
  M 91.25 44.54
  Q 92.61 44.14 92.59 45.00
  A 0.90 0.57 -81.8 0 0 92.93 45.76
  L 93.50 46.04
  Q 94.05 47.30 95.50 46.96
  L 98.11 52.26
  A 1.16 0.54 71.5 0 0 98.73 52.91
  L 103.25 53.79
  Q 99.61 55.37 96.65 57.85
  Q 95.20 59.08 93.18 62.31
  Q 90.47 66.67 86.06 70.06
  Q 82.77 72.60 82.21 77.00
  Q 80.73 76.10 79.00 76.71
  Q 78.48 76.37 78.25 75.79
  Q 79.42 76.00 79.44 74.94
  Q 79.46 73.08 80.95 72.56
  A 1.40 0.63 -10.1 0 0 81.73 72.03
  Q 82.30 70.95 80.41 70.14
  Q 79.69 69.84 80.44 69.61
  Q 81.54 69.27 80.50 68.21
  Q 80.57 67.27 81.27 66.71
  Q 81.79 66.30 81.93 66.00
  Q 82.74 64.30 81.06 63.80
  A 0.88 0.71 5.4 0 1 80.45 63.20
  Q 80.13 61.42 81.88 63.11
  Q 83.12 64.30 82.84 63.28
  Q 82.77 63.02 82.57 62.78
  Q 79.80 59.37 77.79 63.24
  Q 77.68 63.44 77.65 64.17
  Q 77.64 64.62 77.24 64.99
  Q 76.38 65.79 77.50 66.21
  Q 76.73 67.27 76.00 66.50
  Q 74.36 64.78 74.65 62.74
  A 0.85 0.72 -5.7 0 1 75.24 62.13
  Q 76.64 61.70 75.44 60.98
  A 0.38 0.37 -53.6 0 1 75.36 60.41
  Q 75.97 59.73 76.00 58.79
  Q 76.73 58.64 76.75 58.00
  Q 76.84 55.65 78.31 54.26
  Q 78.66 53.93 78.82 53.45
  Q 79.28 52.13 80.16 53.27
  Q 80.43 53.62 80.59 53.22
  Q 81.06 52.03 82.25 51.71
  Q 83.20 52.00 83.32 51.32
  A 1.41 0.95 83.5 0 1 83.73 50.53
  Q 84.80 49.71 84.65 48.30
  Q 84.58 47.72 84.75 47.34
  Q 86.22 43.89 88.88 46.16
  A 0.48 0.43 -47.4 0 1 88.87 46.83
  Q 88.18 47.55 89.12 47.89
  Q 89.58 48.06 89.84 48.22
  Q 91.81 49.42 90.10 46.96
  A 0.49 0.37 61.6 0 1 90.20 46.26
  Q 90.52 46.17 90.85 46.62
  Q 91.64 47.71 91.87 46.56
  A 1.01 0.63 34.4 0 0 91.53 45.78
  Q 91.04 45.31 91.25 44.54
  Z
  M 87.66 55.11
  Q 85.89 56.33 86.09 57.95
  A 0.88 0.83 -23.1 0 1 85.76 58.71
  Q 85.32 59.06 85.43 59.38
  Q 85.65 60.02 85.98 59.30
  L 87.85 55.26
  Q 88.05 54.85 87.66 55.11
  Z
  M 84.50 64.17
  Q 83.42 64.87 83.61 66.20
  Q 83.67 66.56 83.96 66.83
  Q 84.99 67.75 84.75 66.25
  Q 84.46 64.43 85.97 64.79
  A 0.56 0.53 16.3 0 0 86.61 64.46
  Q 87.08 63.23 87.68 62.05
  Q 87.96 61.50 88.01 61.00
  Q 88.19 59.09 87.15 60.08
  A 0.92 0.71 64.4 0 0 86.97 60.91
  Q 87.36 62.40 86.06 63.03
  A 1.05 0.23 11.4 0 1 85.31 63.04
  Q 84.97 62.99 84.92 63.44
  A 1.04 0.90 79.0 0 1 84.50 64.17
  Z"
/>
<path fill="#909090" d="
  M 113.82 48.86
  A 0.72 0.65 55.8 0 1 113.71 49.66
  Q 112.52 50.85 111.57 50.23
  Q 110.83 49.74 110.26 48.93
  Q 109.78 48.24 110.02 47.29
  Q 110.15 46.78 110.08 46.32
  Q 109.80 44.56 111.51 44.88
  A 1.09 0.71 75.3 0 1 112.16 45.47
  L 113.82 48.86
  Z"
/>
<path fill="#909090" d="
  M 98.00 45.29
  L 100.04 45.75
  Q 99.27 46.89 97.75 46.79
  L 95.50 46.96
  Q 94.05 47.30 93.50 46.04
  Q 93.77 44.55 95.49 45.04
  Q 96.70 45.39 98.00 45.29
  Z"
/>
<path fill="#525152" d="
  M 97.75 46.79
  Q 99.27 46.89 100.04 45.75
  Q 102.09 44.46 103.27 46.55
  A 0.78 0.76 -41.1 0 1 103.20 47.40
  Q 100.24 51.14 97.75 46.79
  Z"
/>
<path fill="#525152" d="
  M 76.25 47.04
  Q 76.98 47.04 77.54 47.50
  Q 77.33 49.18 78.99 49.79
  Q 80.80 50.45 82.25 51.71
  Q 81.06 52.03 80.59 53.22
  Q 80.43 53.62 80.16 53.27
  Q 79.28 52.13 78.82 53.45
  Q 78.66 53.93 78.31 54.26
  Q 76.84 55.65 76.75 58.00
  Q 76.73 58.64 76.00 58.79
  Q 74.53 58.71 73.96 60.00
  Q 73.30 59.88 72.79 60.25
  Q 72.13 59.65 71.56 60.06
  Q 69.80 61.34 69.38 63.81
  A 0.55 0.50 -81.3 0 1 68.82 64.27
  Q 66.12 63.94 66.80 61.17
  A 1.02 0.76 -7.9 0 1 67.42 60.56
  Q 68.21 60.28 68.17 59.55
  A 0.67 0.58 78.3 0 1 68.53 58.91
  Q 69.46 58.54 70.04 57.75
  L 73.07 56.89
  A 1.38 0.60 -7.8 0 0 73.86 56.41
  Q 74.34 55.59 73.06 55.64
  A 0.30 0.28 11.5 0 1 72.77 55.23
  Q 73.92 53.01 76.76 53.75
  Q 79.40 54.44 77.92 52.15
  Q 76.55 50.03 76.25 47.04
  Z"
/>
<path fill="#1c1c1d" d="
  M 70.04 57.75
  Q 69.46 58.54 68.53 58.91
  A 0.67 0.58 78.3 0 0 68.17 59.55
  Q 68.21 60.28 67.42 60.56
  A 1.02 0.76 -7.9 0 0 66.80 61.17
  Q 66.12 63.94 68.82 64.27
  A 0.55 0.50 -81.3 0 0 69.38 63.81
  Q 69.80 61.34 71.56 60.06
  Q 72.13 59.65 72.79 60.25
  Q 72.23 61.33 72.00 62.50
  Q 71.63 64.35 72.69 62.94
  Q 73.67 61.62 73.96 60.00
  Q 74.53 58.71 76.00 58.79
  Q 75.97 59.73 75.36 60.41
  A 0.38 0.37 -53.6 0 0 75.44 60.98
  Q 76.64 61.70 75.24 62.13
  A 0.85 0.72 -5.7 0 0 74.65 62.74
  Q 74.36 64.78 76.00 66.50
  Q 76.73 67.27 77.50 66.21
  Q 77.97 68.92 80.50 68.21
  Q 81.54 69.27 80.44 69.61
  Q 79.69 69.84 80.41 70.14
  Q 82.30 70.95 81.73 72.03
  A 1.40 0.63 -10.1 0 1 80.95 72.56
  Q 79.46 73.08 79.44 74.94
  Q 79.42 76.00 78.25 75.79
  Q 70.95 71.21 76.41 77.13
  A 0.60 0.49 47.9 0 1 76.45 77.91
  L 74.96 79.25
  Q 67.84 78.07 66.44 77.56
  Q 64.40 76.83 62.25 73.71
  L 62.21 73.50
  Q 60.77 66.97 61.15 60.31
  Q 61.16 60.24 60.97 59.36
  L 60.75 58.29
  Q 63.48 55.84 61.50 52.96
  Q 60.42 51.34 61.29 49.50
  Q 65.67 48.19 67.57 51.45
  Q 68.23 52.58 69.16 54.42
  Q 69.92 55.95 70.04 57.75
  Z"
/>
<path fill="#7a7a7a" d="
  M 42.71 51.25
  Q 43.06 52.98 44.41 54.09
  Q 46.37 55.70 47.74 57.83
  Q 47.93 58.13 48.44 58.50
  L 53.88 62.42
  A 1.29 0.93 -81.8 0 1 54.31 63.24
  Q 54.66 66.43 54.50 68.00
  Q 54.24 70.52 52.25 69.21
  L 48.31 65.88
  A 0.36 0.30 32.8 0 0 47.78 65.95
  Q 47.18 67.37 47.82 68.75
  Q 48.05 69.24 48.06 69.69
  Q 48.10 72.86 49.73 75.26
  Q 50.39 76.22 50.58 77.37
  Q 51.28 81.48 52.25 82.21
  Q 48.83 83.11 47.68 79.77
  Q 46.87 77.42 46.29 74.99
  Q 46.08 74.07 45.25 74.29
  Q 43.64 69.04 43.45 63.59
  Q 43.40 61.91 42.86 59.13
  Q 42.43 56.88 42.64 54.55
  A 1.51 1.07 36.9 0 0 42.36 53.68
  Q 41.50 52.47 42.71 51.25
  Z"
/>
<path fill="#525152" d="
  M 61.50 52.96
  Q 63.48 55.84 60.75 58.29
  Q 60.35 57.85 59.79 57.75
  L 60.54 56.25
  L 61.50 52.96
  Z"
/>
<path fill="#2a2a2a" d="
  M 87.66 55.11
  Q 88.05 54.85 87.85 55.26
  L 85.98 59.30
  Q 85.65 60.02 85.43 59.38
  Q 85.32 59.06 85.76 58.71
  A 0.88 0.83 -23.1 0 0 86.09 57.95
  Q 85.89 56.33 87.66 55.11
  Z"
/>
<path fill="#3a3a3a" d="
  M 84.92 63.44
  Q 84.97 62.99 85.31 63.04
  A 1.05 0.23 11.4 0 0 86.06 63.03
  Q 87.36 62.40 86.97 60.91
  A 0.92 0.71 64.4 0 1 87.15 60.08
  Q 88.19 59.09 88.01 61.00
  Q 87.96 61.50 87.68 62.05
  Q 87.08 63.23 86.61 64.46
  A 0.56 0.53 16.3 0 1 85.97 64.79
  Q 84.46 64.43 84.75 66.25
  Q 84.99 67.75 83.96 66.83
  Q 83.67 66.56 83.61 66.20
  Q 83.42 64.87 84.50 64.17
  A 1.04 0.90 79.0 0 0 84.92 63.44
  Z"
/>
<path fill="#7a7a7a" d="
  M 73.96 60.00
  Q 73.67 61.62 72.69 62.94
  Q 71.63 64.35 72.00 62.50
  Q 72.23 61.33 72.79 60.25
  Q 73.30 59.88 73.96 60.00
  Z"
/>
<path fill="#7a7a7a" d="
  M 80.50 68.21
  Q 77.97 68.92 77.50 66.21
  Q 76.38 65.79 77.24 64.99
  Q 77.64 64.62 77.65 64.17
  Q 77.68 63.44 77.79 63.24
  Q 79.80 59.37 82.57 62.78
  Q 82.77 63.02 82.84 63.28
  Q 83.12 64.30 81.88 63.11
  Q 80.13 61.42 80.45 63.20
  A 0.88 0.71 5.4 0 0 81.06 63.80
  Q 82.74 64.30 81.93 66.00
  Q 81.79 66.30 81.27 66.71
  Q 80.57 67.27 80.50 68.21
  Z"
/>
<path fill="#b8b8b8" d="
  M 52.25 69.21
  Q 51.44 69.29 52.07 69.52
  Q 52.19 69.57 52.27 69.64
  Q 54.03 71.23 55.25 73.25
  Q 55.37 73.44 55.51 73.91
  Q 55.70 74.57 56.18 74.12
  A 1.07 0.76 70.3 0 0 56.42 73.26
  Q 56.08 70.68 56.94 68.19
  A 1.69 0.73 17.5 0 1 58.75 68.00
  Q 61.99 69.00 61.31 72.51
  Q 61.10 73.62 62.21 73.50
  L 62.25 73.71
  Q 60.69 73.88 60.08 75.28
  Q 59.16 77.41 58.15 79.97
  A 2.12 2.11 -85.0 0 1 56.60 81.28
  Q 54.11 81.80 54.79 84.50
  L 53.50 86.54
  Q 52.79 84.96 53.00 84.25
  Q 53.46 82.68 52.25 82.21
  Q 51.28 81.48 50.58 77.37
  Q 50.39 76.22 49.73 75.26
  Q 48.10 72.86 48.06 69.69
  Q 48.05 69.24 47.82 68.75
  Q 47.18 67.37 47.78 65.95
  A 0.36 0.30 32.8 0 1 48.31 65.88
  L 52.25 69.21
  Z"
/>
<path fill="#d3d3d3" d="
  M 62.25 73.71
  Q 64.40 76.83 66.44 77.56
  Q 67.84 78.07 74.96 79.25
  L 75.00 79.46
  L 71.54 80.64
  Q 71.11 80.79 70.73 81.19
  Q 69.17 82.87 66.75 83.00
  Q 60.72 83.31 54.79 84.50
  Q 54.11 81.80 56.60 81.28
  A 2.12 2.11 -85.0 0 0 58.15 79.97
  Q 59.16 77.41 60.08 75.28
  Q 60.69 73.88 62.25 73.71
  Z"
/>
<path fill="#909090" d="
  M 78.25 75.79
  Q 78.48 76.37 79.00 76.71
  Q 76.81 76.38 77.44 77.37
  A 1.45 0.61 47.7 0 1 77.75 78.25
  Q 77.65 79.23 76.75 79.79
  Q 75.84 79.81 75.00 79.46
  L 74.96 79.25
  L 76.45 77.91
  A 0.60 0.49 47.9 0 0 76.41 77.13
  Q 70.95 71.21 78.25 75.79
  Z"
/>
<path fill="#3a3a3a" d="
  M 45.25 74.29
  Q 46.08 74.07 46.29 74.99
  Q 46.87 77.42 47.68 79.77
  Q 48.83 83.11 52.25 82.21
  Q 53.46 82.68 53.00 84.25
  Q 52.79 84.96 53.50 86.54
  Q 55.93 87.36 57.04 89.55
  A 0.78 0.69 -13.0 0 0 57.74 89.93
  Q 58.61 89.91 59.12 90.65
  Q 60.60 92.80 63.24 92.98
  A 1.72 1.15 -13.7 0 1 64.15 93.31
  L 69.38 97.67
  Q 69.76 97.99 70.24 98.11
  Q 73.78 99.05 74.21 102.75
  L 74.29 103.50
  Q 72.86 107.57 76.00 106.21
  Q 77.60 108.21 78.81 108.94
  Q 79.60 109.41 78.96 110.00
  Q 78.48 110.35 78.12 110.07
  Q 77.40 109.52 77.34 109.51
  Q 76.93 109.44 76.97 109.95
  A 0.97 0.93 13.7 0 0 77.46 110.72
  Q 78.16 111.11 79.00 110.96
  L 80.04 112.00
  Q 79.89 112.75 79.30 112.97
  A 0.74 0.56 -14.0 0 0 78.82 113.56
  Q 78.85 114.87 79.06 116.16
  Q 79.21 117.10 79.98 118.56
  Q 80.88 120.29 81.21 122.25
  Q 81.57 122.69 81.54 123.25
  L 81.48 124.09
  A 0.94 0.64 -11.1 0 1 80.84 124.74
  Q 79.19 125.27 77.68 124.50
  A 0.95 0.90 -45.0 0 0 76.83 124.52
  Q 75.80 125.06 74.72 124.63
  Q 74.43 124.52 74.02 124.12
  Q 73.17 123.31 72.98 124.44
  A 0.57 0.45 -80.6 0 1 72.44 124.93
  Q 71.38 124.73 71.55 122.95
  A 1.28 0.85 39.0 0 0 71.31 122.18
  L 69.40 119.45
  A 0.83 0.46 59.6 0 0 68.73 119.06
  Q 68.31 119.17 68.69 119.81
  Q 69.53 121.24 71.50 125.98
  Q 71.70 126.47 71.26 126.17
  Q 69.56 125.05 69.04 123.04
  Q 68.92 122.56 68.58 122.21
  Q 67.15 120.73 66.56 118.78
  A 0.69 0.45 74.9 0 0 65.97 118.25
  Q 65.61 118.33 65.76 119.00
  Q 66.15 120.71 67.33 121.96
  A 1.11 1.01 -65.6 0 1 67.60 122.80
  Q 67.51 123.92 68.42 124.63
  Q 68.71 124.85 68.84 125.09
  Q 69.95 127.24 68.28 125.71
  Q 65.88 123.50 66.65 125.96
  A 1.43 0.95 14.6 0 0 67.26 126.64
  Q 68.21 127.18 67.19 128.00
  L 66.19 128.00
  Q 66.19 127.27 65.66 126.79
  A 0.73 0.67 31.9 0 1 65.45 126.03
  Q 66.04 124.42 64.49 124.46
  A 0.74 0.73 -80.8 0 0 63.81 124.96
  Q 63.18 126.81 64.69 128.00
  L 63.19 128.00
  Q 63.61 124.16 59.09 122.38
  A 0.65 0.64 19.6 0 0 58.24 122.78
  Q 57.69 124.45 58.42 125.77
  Q 58.69 126.26 58.21 126.05
  L 56.88 125.48
  A 0.33 0.26 33.2 0 0 56.55 125.51
  Q 55.06 126.83 54.69 128.00
  L 27.69 128.00
  Q 26.98 124.66 27.90 120.61
  Q 28.01 120.10 28.26 120.56
  Q 29.49 122.80 28.92 124.77
  A 0.94 0.51 -69.2 0 0 29.04 125.66
  Q 29.23 125.79 29.50 125.78
  A 0.82 0.65 -77.2 0 0 30.12 125.28
  Q 31.06 122.98 30.60 120.49
  A 0.77 0.62 73.5 0 1 30.92 119.71
  Q 32.08 119.14 31.94 122.23
  A 0.63 0.55 -8.1 0 0 32.74 122.75
  L 35.25 122.04
  Q 34.97 123.70 35.69 125.13
  A 0.89 0.74 73.0 0 0 36.43 125.62
  Q 37.41 125.60 37.00 124.00
  Q 36.66 122.63 37.50 121.71
  Q 40.02 122.89 39.89 118.65
  A 1.46 1.45 82.7 0 1 41.01 117.19
  Q 42.06 116.94 41.82 118.26
  Q 41.65 119.23 42.00 119.69
  Q 42.86 120.78 42.95 119.39
  Q 43.20 115.25 45.52 115.63
  A 1.71 0.97 60.4 0 1 46.34 116.12
  Q 47.55 117.36 48.86 117.85
  Q 50.85 118.60 49.77 116.78
  Q 48.04 113.89 47.32 110.88
  Q 47.00 109.57 46.15 107.81
  Q 45.42 106.30 45.23 104.59
  Q 45.16 103.94 44.87 103.64
  Q 44.66 103.42 44.39 103.27
  Q 43.89 102.98 43.67 102.64
  Q 41.64 99.50 38.27 97.90
  A 0.77 0.74 14.4 0 1 37.83 97.19
  Q 38.19 90.18 43.55 85.89
  Q 43.59 85.86 45.16 84.87
  Q 47.83 83.18 46.31 79.69
  Q 45.72 78.31 45.25 74.29
  Z
  M 54.31 90.40
  Q 54.35 89.58 53.89 89.07
  A 0.97 0.77 -25.2 0 0 53.01 88.86
  Q 50.31 89.59 53.56 90.87
  A 0.55 0.55 12.8 0 0 54.31 90.40
  Z
  M 63.69 96.79
  Q 63.13 97.67 63.28 98.31
  A 0.45 0.43 -23.4 0 0 63.95 98.55
  Q 64.78 98.04 64.27 96.83
  Q 64.02 96.26 63.69 96.79
  Z
  M 59.09 97.06
  Q 56.87 96.54 58.37 98.14
  Q 59.96 99.83 61.57 98.52
  A 0.76 0.67 -31.3 0 0 61.82 97.71
  Q 61.44 96.70 60.04 97.04
  Q 59.53 97.17 59.09 97.06
  Z
  M 63.79 102.00
  Q 62.14 105.32 64.60 107.44
  A 0.31 0.29 -39.0 0 1 64.53 107.93
  Q 63.66 108.39 64.16 109.54
  Q 65.20 111.91 65.86 109.99
  A 1.33 1.01 46.0 0 0 65.75 109.07
  Q 64.89 107.45 67.02 107.90
  Q 68.77 108.27 68.75 110.15
  Q 68.73 111.97 69.82 110.51
  Q 72.76 106.57 68.50 103.46
  Q 67.54 102.43 68.44 101.44
  Q 70.89 98.71 66.19 98.69
  Q 62.23 98.67 63.79 102.00
  Z
  M 57.30 103.10
  Q 58.39 103.09 57.79 101.95
  Q 55.93 98.40 54.89 101.77
  A 1.05 0.93 37.8 0 0 55.05 102.64
  Q 56.43 104.53 56.09 107.01
  A 1.89 1.41 44.8 0 0 56.23 107.95
  L 57.89 111.72
  A 0.61 0.59 -17.1 0 0 58.54 112.05
  Q 59.02 111.97 59.48 112.11
  A 0.89 0.78 -86.9 0 1 60.03 112.81
  Q 60.37 115.02 59.24 117.59
  A 1.71 1.71 -51.4 0 0 59.43 119.28
  Q 61.36 121.90 62.52 123.47
  Q 63.11 124.26 63.49 123.93
  A 0.65 0.54 49.6 0 0 63.48 123.09
  L 60.44 119.54
  A 1.29 0.80 36.8 0 1 60.10 118.68
  Q 60.38 116.39 62.34 117.01
  A 0.63 0.56 -77.9 0 1 62.72 117.69
  Q 62.26 120.70 64.77 122.42
  Q 65.20 122.71 65.04 122.21
  Q 63.90 118.54 62.75 114.88
  Q 62.39 113.73 63.50 113.89
  A 0.98 0.96 -63.5 0 0 64.31 113.61
  Q 65.31 112.65 67.40 113.28
  Q 69.13 113.80 68.20 112.25
  Q 66.85 110.01 65.14 111.94
  A 0.53 0.52 49.2 0 1 64.31 111.87
  Q 63.80 111.08 62.82 110.88
  A 1.04 0.83 -58.0 0 0 61.96 111.18
  Q 60.28 112.81 61.00 110.00
  Q 61.26 109.00 60.25 107.00
  Q 59.68 105.87 59.10 106.42
  A 1.12 0.71 70.2 0 0 58.90 107.31
  Q 59.46 110.90 57.41 107.95
  Q 57.01 107.39 56.97 106.83
  Q 56.84 105.10 58.53 104.80
  A 1.49 0.68 0.7 0 0 59.35 104.44
  Q 59.90 103.82 58.28 104.14
  Q 57.30 104.33 56.95 103.53
  A 0.36 0.30 -10.8 0 1 57.30 103.10
  Z
  M 61.45 102.93
  Q 60.26 103.00 60.56 104.03
  Q 60.72 104.56 60.67 104.99
  Q 60.53 106.31 61.50 105.92
  A 0.83 0.65 81.4 0 0 61.91 105.19
  Q 61.90 103.77 62.70 102.64
  A 1.55 0.87 -41.9 0 0 63.00 101.76
  Q 62.93 100.72 62.05 100.42
  A 0.58 0.57 -69.1 0 0 61.33 100.75
  Q 60.93 101.71 61.59 102.57
  Q 61.86 102.91 61.45 102.93
  Z
  M 53.26 104.94
  Q 52.60 105.43 53.40 105.90
  A 0.51 0.51 -57.3 0 0 54.07 105.75
  Q 55.41 103.87 53.50 101.84
  Q 52.86 101.15 53.07 102.06
  L 53.57 104.19
  A 0.80 0.69 -26.6 0 1 53.26 104.94
  Z
  M 49.06 106.71
  A 0.82 0.82 30.4 0 0 48.74 105.49
  Q 47.44 104.89 47.87 106.16
  Q 47.97 106.47 48.03 106.85
  Q 48.20 107.93 49.06 106.71
  Z
  M 72.20 111.19
  Q 71.89 112.50 72.55 111.74
  A 1.03 0.82 73.8 0 0 72.78 111.18
  Q 73.04 107.74 72.20 111.19
  Z
  M 56.27 111.09
  Q 54.20 110.50 56.27 112.68
  A 0.73 0.73 39.4 0 0 57.42 112.57
  Q 58.02 111.59 56.27 111.09
  Z
  M 71.90 113.34
  Q 72.27 112.37 71.46 113.21
  Q 69.66 115.08 71.61 113.71
  A 0.85 0.71 -11.8 0 0 71.90 113.34
  Z
  M 53.53 116.22
  Q 52.63 118.57 50.91 120.45
  A 0.94 0.76 -35.8 0 0 50.68 121.30
  Q 51.13 122.59 52.50 121.25
  Q 54.22 119.57 54.88 116.99
  Q 55.02 116.48 54.86 116.02
  Q 54.27 114.29 53.53 116.22
  Z
  M 69.36 117.68
  Q 71.05 118.11 69.53 116.96
  A 0.75 0.51 47.8 0 0 68.92 116.81
  Q 68.64 116.92 68.73 117.19
  A 0.93 0.58 5.9 0 0 69.36 117.68
  Z
  M 57.10 119.65
  Q 57.68 118.74 57.28 118.45
  A 0.68 0.52 -51.9 0 0 56.47 118.66
  Q 55.74 119.54 55.95 120.71
  A 0.44 0.37 70.9 0 0 56.53 121.06
  Q 56.78 120.90 56.83 120.56
  Q 56.92 119.94 57.10 119.65
  Z
  M 54.31 121.16
  Q 55.94 122.55 54.70 120.78
  A 0.53 0.42 60.2 0 0 54.15 120.56
  Q 53.78 120.71 54.31 121.16
  Z
  M 51.27 126.31
  Q 51.66 128.04 52.15 125.97
  A 0.61 0.46 -76.9 0 0 51.84 125.28
  Q 51.50 125.19 51.31 125.57
  Q 51.16 125.87 51.27 126.31
  Z"
/>
<path fill="#fcfcfc" d="
  M 82.21 77.00
  Q 86.60 90.53 87.29 104.75
  Q 86.76 107.96 86.44 111.19
  Q 86.20 113.58 87.17 114.88
  A 1.77 1.15 35.0 0 1 87.52 115.75
  Q 87.68 120.06 87.92 124.37
  Q 87.94 124.74 87.78 124.95
  Q 87.57 125.21 87.27 125.34
  A 0.40 0.34 78.8 0 1 86.81 124.97
  Q 86.78 124.58 86.63 124.54
  A 0.60 0.38 -86.5 0 0 86.17 125.18
  L 86.19 128.00
  L 82.19 128.00
  Q 82.69 127.14 82.54 126.25
  L 81.54 123.25
  Q 81.57 122.69 81.21 122.25
  L 80.42 114.55
  A 1.63 1.63 -34.5 0 1 80.59 113.64
  Q 81.08 112.71 80.04 112.00
  L 79.00 110.96
  L 78.96 110.00
  Q 79.60 109.41 78.81 108.94
  Q 77.60 108.21 76.00 106.21
  L 74.29 103.50
  L 74.21 102.75
  Q 74.07 101.93 74.69 100.94
  Q 77.65 96.21 72.56 96.18
  A 0.47 0.45 -88.8 0 1 72.11 95.69
  Q 72.19 93.74 70.29 93.01
  A 1.56 1.56 -82.8 0 1 69.33 91.77
  Q 68.84 88.18 71.36 88.31
  Q 73.96 88.43 74.03 88.42
  Q 76.94 87.80 76.50 84.50
  Q 76.10 81.48 76.75 79.79
  Q 77.65 79.23 77.75 78.25
  A 1.45 0.61 47.7 0 0 77.44 77.37
  Q 76.81 76.38 79.00 76.71
  Q 80.73 76.10 82.21 77.00
  Z"
/>
<path fill="#eaeae9" d="
  M 75.00 79.46
  Q 75.84 79.81 76.75 79.79
  Q 76.10 81.48 76.50 84.50
  Q 76.94 87.80 74.03 88.42
  Q 73.96 88.43 71.36 88.31
  Q 68.84 88.18 69.33 91.77
  A 1.56 1.56 -82.8 0 0 70.29 93.01
  Q 72.19 93.74 72.11 95.69
  A 0.47 0.45 -88.8 0 0 72.56 96.18
  Q 77.65 96.21 74.69 100.94
  Q 74.07 101.93 74.21 102.75
  Q 73.78 99.05 70.24 98.11
  Q 69.76 97.99 69.38 97.67
  L 64.15 93.31
  A 1.72 1.15 -13.7 0 0 63.24 92.98
  Q 60.60 92.80 59.12 90.65
  Q 58.61 89.91 57.74 89.93
  A 0.78 0.69 -13.0 0 1 57.04 89.55
  Q 55.93 87.36 53.50 86.54
  L 54.79 84.50
  Q 60.72 83.31 66.75 83.00
  Q 69.17 82.87 70.73 81.19
  Q 71.11 80.79 71.54 80.64
  L 75.00 79.46
  Z"
/>
<path fill="#525152" d="
  M 54.31 90.40
  A 0.55 0.55 12.8 0 1 53.56 90.87
  Q 50.31 89.59 53.01 88.86
  A 0.97 0.77 -25.2 0 1 53.89 89.07
  Q 54.35 89.58 54.31 90.40
  Z"
/>
<path fill="#525152" d="
  M 63.69 96.79
  Q 64.02 96.26 64.27 96.83
  Q 64.78 98.04 63.95 98.55
  A 0.45 0.43 -23.4 0 1 63.28 98.31
  Q 63.13 97.67 63.69 96.79
  Z"
/>
<path fill="#5f5e5f" d="
  M 60.04 97.04
  Q 61.44 96.70 61.82 97.71
  A 0.76 0.67 -31.3 0 1 61.57 98.52
  Q 59.96 99.83 58.37 98.14
  Q 56.87 96.54 59.09 97.06
  Q 59.53 97.17 60.04 97.04
  Z"
/>
<path fill="#525152" d="
  M 68.50 103.46
  L 67.80 103.60
  A 1.79 1.20 41.2 0 1 66.86 103.48
  Q 65.17 102.79 66.19 104.81
  Q 66.87 106.18 66.59 107.08
  A 0.45 0.37 -69.5 0 1 66.05 107.39
  Q 65.82 107.28 65.81 106.94
  Q 65.79 105.21 65.23 103.95
  A 1.96 1.34 -62.9 0 1 65.11 103.02
  Q 65.25 101.93 63.79 102.00
  Q 62.23 98.67 66.19 98.69
  Q 70.89 98.71 68.44 101.44
  Q 67.54 102.43 68.50 103.46
  Z"
/>
<path fill="#5f5e5f" d="
  M 56.95 103.53
  Q 57.30 104.33 58.28 104.14
  Q 59.90 103.82 59.35 104.44
  A 1.49 0.68 0.7 0 1 58.53 104.80
  Q 56.84 105.10 56.97 106.83
  Q 57.01 107.39 57.41 107.95
  Q 59.46 110.90 58.90 107.31
  A 1.12 0.71 70.2 0 1 59.10 106.42
  Q 59.68 105.87 60.25 107.00
  Q 61.26 109.00 61.00 110.00
  Q 60.28 112.81 61.96 111.18
  A 1.04 0.83 -58.0 0 1 62.82 110.88
  Q 63.80 111.08 64.31 111.87
  A 0.53 0.52 49.2 0 0 65.14 111.94
  Q 66.85 110.01 68.20 112.25
  Q 69.13 113.80 67.40 113.28
  Q 65.31 112.65 64.31 113.61
  A 0.98 0.96 -63.5 0 1 63.50 113.89
  Q 62.39 113.73 62.75 114.88
  Q 63.90 118.54 65.04 122.21
  Q 65.20 122.71 64.77 122.42
  Q 62.26 120.70 62.72 117.69
  A 0.63 0.56 -77.9 0 0 62.34 117.01
  Q 60.38 116.39 60.10 118.68
  A 1.29 0.80 36.8 0 0 60.44 119.54
  L 63.48 123.09
  A 0.65 0.54 49.6 0 1 63.49 123.93
  Q 63.11 124.26 62.52 123.47
  Q 61.36 121.90 59.43 119.28
  A 1.71 1.71 -51.4 0 1 59.24 117.59
  Q 60.37 115.02 60.03 112.81
  A 0.89 0.78 -86.9 0 0 59.48 112.11
  Q 59.02 111.97 58.54 112.05
  A 0.61 0.59 -17.1 0 1 57.89 111.72
  L 56.23 107.95
  A 1.89 1.41 44.8 0 1 56.09 107.01
  Q 56.43 104.53 55.05 102.64
  A 1.05 0.93 37.8 0 1 54.89 101.77
  Q 55.93 98.40 57.79 101.95
  Q 58.39 103.09 57.30 103.10
  A 0.36 0.30 -10.8 0 0 56.95 103.53
  Z"
/>
<path fill="#5f5e5f" d="
  M 61.59 102.57
  Q 60.93 101.71 61.33 100.75
  A 0.58 0.57 -69.1 0 1 62.05 100.42
  Q 62.93 100.72 63.00 101.76
  A 1.55 0.87 -41.9 0 1 62.70 102.64
  Q 61.90 103.77 61.91 105.19
  A 0.83 0.65 81.4 0 1 61.50 105.92
  Q 60.53 106.31 60.67 104.99
  Q 60.72 104.56 60.56 104.03
  Q 60.26 103.00 61.45 102.93
  Q 61.86 102.91 61.59 102.57
  Z"
/>
<path fill="#5f5e5f" d="
  M 53.57 104.19
  L 53.07 102.06
  Q 52.86 101.15 53.50 101.84
  Q 55.41 103.87 54.07 105.75
  A 0.51 0.51 -57.3 0 1 53.40 105.90
  Q 52.60 105.43 53.26 104.94
  A 0.80 0.69 -26.6 0 0 53.57 104.19
  Z"
/>
<path fill="#5f5e5f" d="
  M 63.79 102.00
  Q 65.25 101.93 65.11 103.02
  A 1.96 1.34 -62.9 0 0 65.23 103.95
  Q 65.79 105.21 65.81 106.94
  Q 65.82 107.28 66.05 107.39
  A 0.45 0.37 -69.5 0 0 66.59 107.08
  Q 66.87 106.18 66.19 104.81
  Q 65.17 102.79 66.86 103.48
  A 1.79 1.20 41.2 0 0 67.80 103.60
  L 68.50 103.46
  Q 72.76 106.57 69.82 110.51
  Q 68.73 111.97 68.75 110.15
  Q 68.77 108.27 67.02 107.90
  Q 64.89 107.45 65.75 109.07
  A 1.33 1.01 46.0 0 1 65.86 109.99
  Q 65.20 111.91 64.16 109.54
  Q 63.66 108.39 64.53 107.93
  A 0.31 0.29 -39.0 0 0 64.60 107.44
  Q 62.14 105.32 63.79 102.00
  Z"
/>
<path fill="#aaaaaa" d="
  M 74.29 103.50
  L 76.00 106.21
  Q 72.86 107.57 74.29 103.50
  Z"
/>
<path fill="#909090" d="
  M 87.29 104.75
  Q 89.37 115.78 89.25 127.00
  Q 89.24 127.51 88.44 128.00
  L 86.19 128.00
  L 86.17 125.18
  A 0.60 0.38 -86.5 0 1 86.63 124.54
  Q 86.78 124.58 86.81 124.97
  A 0.40 0.34 78.8 0 0 87.27 125.34
  Q 87.57 125.21 87.78 124.95
  Q 87.94 124.74 87.92 124.37
  Q 87.68 120.06 87.52 115.75
  A 1.77 1.15 35.0 0 0 87.17 114.88
  Q 86.20 113.58 86.44 111.19
  Q 86.76 107.96 87.29 104.75
  Z"
/>
<path fill="#525152" d="
  M 49.06 106.71
  Q 48.20 107.93 48.03 106.85
  Q 47.97 106.47 47.87 106.16
  Q 47.44 104.89 48.74 105.49
  A 0.82 0.82 30.4 0 1 49.06 106.71
  Z"
/>
<path fill="#2a2a2a" d="
  M 39.83 109.39
  Q 40.18 108.58 40.46 108.81
  A 0.67 0.44 -55.8 0 1 40.45 109.57
  Q 38.16 113.28 39.83 109.39
  Z"
/>
<path fill="#525152" d="
  M 72.20 111.19
  Q 73.04 107.74 72.78 111.18
  A 1.03 0.82 73.8 0 1 72.55 111.74
  Q 71.89 112.50 72.20 111.19
  Z"
/>
<path fill="#909090" d="
  M 78.96 110.00
  L 79.00 110.96
  Q 78.16 111.11 77.46 110.72
  A 0.97 0.93 13.7 0 1 76.97 109.95
  Q 76.93 109.44 77.34 109.51
  Q 77.40 109.52 78.12 110.07
  Q 78.48 110.35 78.96 110.00
  Z"
/>
<path fill="#5f5e5f" d="
  M 56.27 111.09
  Q 58.02 111.59 57.42 112.57
  A 0.73 0.73 39.4 0 1 56.27 112.68
  Q 54.20 110.50 56.27 111.09
  Z"
/>
<path fill="#909090" d="
  M 80.04 112.00
  Q 81.08 112.71 80.59 113.64
  A 1.63 1.63 -34.5 0 0 80.42 114.55
  L 81.21 122.25
  Q 80.88 120.29 79.98 118.56
  Q 79.21 117.10 79.06 116.16
  Q 78.85 114.87 78.82 113.56
  A 0.74 0.56 -14.0 0 1 79.30 112.97
  Q 79.89 112.75 80.04 112.00
  Z"
/>
<path fill="#5f5e5f" d="
  M 71.61 113.71
  Q 69.66 115.08 71.46 113.21
  Q 72.27 112.37 71.90 113.34
  A 0.85 0.71 -11.8 0 1 71.61 113.71
  Z"
/>
<path fill="#5f5e5f" d="
  M 53.53 116.22
  Q 54.27 114.29 54.86 116.02
  Q 55.02 116.48 54.88 116.99
  Q 54.22 119.57 52.50 121.25
  Q 51.13 122.59 50.68 121.30
  A 0.94 0.76 -35.8 0 1 50.91 120.45
  Q 52.63 118.57 53.53 116.22
  Z"
/>
<path fill="#525152" d="
  M 37.50 121.71
  Q 36.66 122.63 37.00 124.00
  Q 37.41 125.60 36.43 125.62
  A 0.89 0.74 73.0 0 1 35.69 125.13
  Q 34.97 123.70 35.25 122.04
  Q 37.78 120.32 36.70 117.47
  A 0.43 0.36 76.9 0 1 36.99 116.90
  Q 37.61 116.87 37.87 117.52
  Q 38.02 117.89 37.84 118.48
  Q 37.38 120.05 37.50 121.71
  Z"
/>
<path fill="#5f5e5f" d="
  M 68.73 117.19
  Q 68.64 116.92 68.92 116.81
  A 0.75 0.51 47.8 0 1 69.53 116.96
  Q 71.05 118.11 69.36 117.68
  A 0.93 0.58 5.9 0 1 68.73 117.19
  Z"
/>
<path fill="#5f5e5f" d="
  M 56.83 120.56
  Q 56.78 120.90 56.53 121.06
  A 0.44 0.37 70.9 0 1 55.95 120.71
  Q 55.74 119.54 56.47 118.66
  A 0.68 0.52 -51.9 0 1 57.28 118.45
  Q 57.68 118.74 57.10 119.65
  Q 56.92 119.94 56.83 120.56
  Z"
/>
<path fill="#5f5e5f" d="
  M 81.54 123.25
  L 82.54 126.25
  Q 80.93 126.88 79.45 126.23
  A 1.50 0.86 37.4 0 0 78.52 126.11
  Q 77.12 126.52 76.69 128.00
  L 67.19 128.00
  Q 68.21 127.18 67.26 126.64
  A 1.43 0.95 14.6 0 1 66.65 125.96
  Q 65.88 123.50 68.28 125.71
  Q 69.95 127.24 68.84 125.09
  Q 68.71 124.85 68.42 124.63
  Q 67.51 123.92 67.60 122.80
  A 1.11 1.01 -65.6 0 0 67.33 121.96
  Q 66.15 120.71 65.76 119.00
  Q 65.61 118.33 65.97 118.25
  A 0.69 0.45 74.9 0 1 66.56 118.78
  Q 67.15 120.73 68.58 122.21
  Q 68.92 122.56 69.04 123.04
  Q 69.56 125.05 71.26 126.17
  Q 71.70 126.47 71.50 125.98
  Q 69.53 121.24 68.69 119.81
  Q 68.31 119.17 68.73 119.06
  A 0.83 0.46 59.6 0 1 69.40 119.45
  L 71.31 122.18
  A 1.28 0.85 39.0 0 1 71.55 122.95
  Q 71.38 124.73 72.44 124.93
  A 0.57 0.45 -80.6 0 0 72.98 124.44
  Q 73.17 123.31 74.02 124.12
  Q 74.43 124.52 74.72 124.63
  Q 75.80 125.06 76.83 124.52
  A 0.95 0.90 -45.0 0 1 77.68 124.50
  Q 79.19 125.27 80.84 124.74
  A 0.94 0.64 -11.1 0 0 81.48 124.09
  L 81.54 123.25
  Z"
/>
<path fill="#525152" d="
  M 54.31 121.16
  Q 53.78 120.71 54.15 120.56
  A 0.53 0.42 60.2 0 1 54.70 120.78
  Q 55.94 122.55 54.31 121.16
  Z"
/>
<path fill="#7a7a7a" d="
  M 63.19 128.00
  L 54.69 128.00
  Q 55.06 126.83 56.55 125.51
  A 0.33 0.26 33.2 0 1 56.88 125.48
  L 58.21 126.05
  Q 58.69 126.26 58.42 125.77
  Q 57.69 124.45 58.24 122.78
  A 0.65 0.64 19.6 0 1 59.09 122.38
  Q 63.61 124.16 63.19 128.00
  Z
  M 59.62 124.41
  Q 60.71 124.17 60.12 123.64
  Q 58.45 122.13 59.23 124.19
  A 0.34 0.34 74.3 0 0 59.62 124.41
  Z"
/>
<path fill="#5f5e5f" d="
  M 59.62 124.41
  A 0.34 0.34 74.3 0 1 59.23 124.19
  Q 58.45 122.13 60.12 123.64
  Q 60.71 124.17 59.62 124.41
  Z"
/>
<path fill="#7a7a7a" d="
  M 66.19 128.00
  L 64.69 128.00
  Q 63.18 126.81 63.81 124.96
  A 0.74 0.73 -80.8 0 1 64.49 124.46
  Q 66.04 124.42 65.45 126.03
  A 0.73 0.67 31.9 0 0 65.66 126.79
  Q 66.19 127.27 66.19 128.00
  Z"
/>
<path fill="#5f5e5f" d="
  M 51.31 125.57
  Q 51.50 125.19 51.84 125.28
  A 0.61 0.46 -76.9 0 1 52.15 125.97
  Q 51.66 128.04 51.27 126.31
  Q 51.16 125.87 51.31 125.57
  Z"
/>
<path fill="#909090" d="
  M 82.54 126.25
  Q 82.69 127.14 82.19 128.00
  L 76.69 128.00
  Q 77.12 126.52 78.52 126.11
  A 1.50 0.86 37.4 0 1 79.45 126.23
  Q 80.93 126.88 82.54 126.25
  Z"
/>
</svg>
